<?xml version="1.0" encoding="utf-8"?>
<!-- Generator: Adobe Illustrator 22.0.1, SVG Export Plug-In . SVG Version: 6.00 Build 0)  -->
<svg version="1.1" id="Layer_1" xmlns="http://www.w3.org/2000/svg" xmlns:xlink="http://www.w3.org/1999/xlink" x="0px" y="0px"
	 viewBox="0 0 294.6 65.3" preserveAspectRatio="xMinYMid meet" xml:space="preserve">
<style type="text/css">
	.st0{fill:#B41F29;}
	.st1{fill:#A4AEB3;}
	.st2{fill:#FFFFFF;}
</style>
<g>
	<path class="st0" d="M69.5,29.6V19.2h-1.3c0-0.1-0.1-0.3-0.1-0.4c0-0.2,0-0.3,0.1-0.4h3.9c0,0.1,0.1,0.3,0.1,0.4
		c0,0.2,0,0.3-0.1,0.4h-1.5v10.3h4.9v-2.9c0.1,0,0.3-0.1,0.5-0.1c0.2,0,0.4,0,0.5,0.1v3.8h-8.3c0-0.1-0.1-0.3-0.1-0.4
		c0-0.2,0-0.3,0.1-0.4H69.5z"/>
	<path class="st0" d="M83,29.3c-0.3,0.4-0.6,0.7-1,1c-0.4,0.3-1.1,0.4-1.9,0.4c-0.8,0-1.4-0.2-1.9-0.6c-0.5-0.4-0.7-1-0.7-1.8
		c0-0.4,0-0.7,0.1-1c0.1-0.3,0.3-0.6,0.5-0.8c0.2-0.2,0.5-0.4,0.9-0.6c0.4-0.2,0.8-0.3,1.4-0.3l2.6-0.3v-0.4c0-0.3,0-0.6-0.1-0.9
		c-0.1-0.3-0.2-0.5-0.3-0.7c-0.2-0.2-0.4-0.3-0.7-0.4s-0.6-0.1-1-0.1c-0.3,0-0.6,0-0.8,0.1c-0.3,0.1-0.5,0.1-0.7,0.2
		c-0.2,0.1-0.4,0.2-0.6,0.3c-0.2,0.1-0.3,0.2-0.5,0.3v-1c0.1-0.1,0.3-0.2,0.4-0.3c0.2-0.1,0.4-0.2,0.6-0.3c0.2-0.1,0.5-0.2,0.8-0.2
		c0.3-0.1,0.7-0.1,1-0.1c0.3,0,0.6,0,0.9,0.1c0.3,0.1,0.7,0.2,1,0.4c0.3,0.2,0.6,0.5,0.8,0.8c0.2,0.4,0.3,0.9,0.3,1.5v5.1h1.1
		c0,0.1,0.1,0.3,0.1,0.4s0,0.3-0.1,0.4H83V29.3z M82.9,26l-2.2,0.2c-0.7,0.1-1.3,0.3-1.7,0.6c-0.4,0.3-0.6,0.8-0.6,1.4
		c0,0.5,0.2,0.9,0.5,1.2c0.3,0.3,0.8,0.4,1.3,0.4c0.3,0,0.6,0,0.9-0.1c0.3-0.1,0.6-0.2,0.8-0.4c0.2-0.2,0.5-0.4,0.6-0.7
		c0.2-0.3,0.2-0.6,0.2-1V26z"/>
	<path class="st0" d="M86.9,29.6v-6.8h-1.2c0-0.1-0.1-0.3-0.1-0.4s0-0.3,0.1-0.4h2.1v1.3c0.2-0.4,0.6-0.8,1-1.1
		c0.4-0.3,1-0.5,1.8-0.5c0.9,0,1.5,0.2,2,0.7c0.5,0.5,0.7,1.2,0.7,2.2v4.9h1.2c0,0.1,0.1,0.3,0.1,0.4s0,0.3-0.1,0.4h-3.3
		c0-0.1-0.1-0.3-0.1-0.4s0-0.3,0.1-0.4h1.1v-4.5c0-0.4,0-0.7-0.1-1c0-0.3-0.1-0.6-0.3-0.8c-0.1-0.2-0.3-0.4-0.6-0.5
		c-0.2-0.1-0.6-0.2-0.9-0.2c-0.3,0-0.6,0.1-0.9,0.2c-0.3,0.1-0.5,0.3-0.8,0.5c-0.2,0.2-0.4,0.6-0.5,1c-0.1,0.4-0.2,0.9-0.2,1.5v3.8
		H89c0,0.1,0.1,0.3,0.1,0.4s0,0.3-0.1,0.4h-3.3c0-0.1-0.1-0.3-0.1-0.4s0-0.3,0.1-0.4H86.9z"/>
	<path class="st0" d="M101.8,29.8c-0.1,0.1-0.3,0.2-0.4,0.3c-0.2,0.1-0.4,0.2-0.6,0.3c-0.2,0.1-0.5,0.2-0.8,0.2s-0.6,0.1-0.9,0.1
		c-0.6,0-1.2-0.1-1.7-0.3c-0.5-0.2-0.9-0.5-1.2-0.9s-0.6-0.8-0.7-1.4c-0.2-0.5-0.2-1.1-0.2-1.7c0-0.6,0.1-1.2,0.2-1.8
		c0.1-0.6,0.4-1,0.7-1.4c0.3-0.4,0.7-0.7,1.1-1c0.5-0.2,1-0.4,1.6-0.4c0.5,0,0.9,0.1,1.3,0.3c0.4,0.2,0.7,0.5,0.9,0.8V22
		c0.1,0,0.1,0,0.2,0s0.1,0,0.2,0c0.2,0,0.3,0,0.4,0.1v3.3c-0.1,0-0.3,0.1-0.4,0.1c-0.2,0-0.3,0-0.4-0.1V25c0-0.7-0.2-1.2-0.5-1.7
		c-0.3-0.4-0.9-0.6-1.5-0.6c-0.5,0-1,0.1-1.3,0.3c-0.3,0.2-0.6,0.5-0.8,0.9c-0.2,0.4-0.3,0.7-0.4,1.2c-0.1,0.4-0.1,0.8-0.1,1.2
		c0,0.6,0.1,1,0.2,1.5c0.1,0.4,0.3,0.8,0.6,1c0.3,0.3,0.6,0.5,0.9,0.6c0.3,0.1,0.7,0.2,1.1,0.2c0.3,0,0.6,0,0.8-0.1
		c0.3-0.1,0.5-0.2,0.7-0.3c0.2-0.1,0.4-0.2,0.6-0.3c0.2-0.1,0.3-0.2,0.5-0.4V29.8z"/>
	<path class="st0" d="M108.4,29.3c-0.3,0.4-0.6,0.7-1,1c-0.4,0.3-1.1,0.4-1.9,0.4c-0.8,0-1.4-0.2-1.9-0.6c-0.5-0.4-0.7-1-0.7-1.8
		c0-0.4,0-0.7,0.1-1c0.1-0.3,0.3-0.6,0.5-0.8c0.2-0.2,0.5-0.4,0.9-0.6c0.4-0.2,0.8-0.3,1.4-0.3l2.6-0.3v-0.4c0-0.3,0-0.6-0.1-0.9
		c-0.1-0.3-0.2-0.5-0.3-0.7c-0.2-0.2-0.4-0.3-0.7-0.4s-0.6-0.1-1-0.1c-0.3,0-0.6,0-0.8,0.1c-0.3,0.1-0.5,0.1-0.7,0.2
		c-0.2,0.1-0.4,0.2-0.6,0.3c-0.2,0.1-0.3,0.2-0.5,0.3v-1c0.1-0.1,0.3-0.2,0.4-0.3c0.2-0.1,0.4-0.2,0.6-0.3c0.2-0.1,0.5-0.2,0.8-0.2
		c0.3-0.1,0.7-0.1,1-0.1c0.3,0,0.6,0,0.9,0.1c0.3,0.1,0.7,0.2,1,0.4c0.3,0.2,0.6,0.5,0.8,0.8c0.2,0.4,0.3,0.9,0.3,1.5v5.1h1.1
		c0,0.1,0.1,0.3,0.1,0.4s0,0.3-0.1,0.4h-2.1V29.3z M108.4,26l-2.2,0.2c-0.7,0.1-1.3,0.3-1.7,0.6c-0.4,0.3-0.6,0.8-0.6,1.4
		c0,0.5,0.2,0.9,0.5,1.2c0.3,0.3,0.8,0.4,1.3,0.4c0.3,0,0.6,0,0.9-0.1c0.3-0.1,0.6-0.2,0.8-0.4c0.2-0.2,0.5-0.4,0.6-0.7
		c0.2-0.3,0.2-0.6,0.2-1V26z"/>
	<path class="st0" d="M111.4,27.4c0.1,0,0.1,0,0.2,0s0.1,0,0.2,0c0.1,0,0.1,0,0.2,0c0.1,0,0.1,0,0.2,0v0.3c0,0.3,0.1,0.6,0.2,0.9
		c0.1,0.3,0.3,0.5,0.6,0.6c0.2,0.2,0.5,0.3,0.8,0.4c0.3,0.1,0.7,0.1,1,0.1c0.3,0,0.5,0,0.8-0.1c0.2,0,0.4-0.1,0.6-0.2
		c0.2-0.1,0.3-0.3,0.4-0.4c0.1-0.2,0.2-0.4,0.2-0.7c0-0.2,0-0.5-0.1-0.6c-0.1-0.2-0.2-0.3-0.4-0.4c-0.2-0.1-0.4-0.2-0.6-0.3
		c-0.2-0.1-0.5-0.2-0.7-0.2l-1.5-0.4c-0.7-0.2-1.2-0.4-1.5-0.8c-0.3-0.3-0.5-0.8-0.5-1.3c0-0.4,0.1-0.8,0.2-1.1
		c0.2-0.3,0.4-0.6,0.6-0.8c0.3-0.2,0.6-0.3,0.9-0.4c0.3-0.1,0.7-0.1,1-0.1c0.6,0,1,0.1,1.4,0.3c0.4,0.2,0.7,0.4,0.9,0.7V22
		c0.1,0,0.1,0,0.2,0c0.1,0,0.1,0,0.2,0c0.2,0,0.3,0,0.4,0.1v2.7c-0.1,0-0.3,0.1-0.4,0.1c-0.2,0-0.3,0-0.4-0.1v-0.4
		c0-0.2,0-0.4-0.1-0.6c-0.1-0.2-0.2-0.4-0.4-0.6c-0.2-0.2-0.4-0.3-0.7-0.4c-0.3-0.1-0.6-0.2-1-0.2c-0.2,0-0.5,0-0.7,0.1
		s-0.4,0.1-0.6,0.2c-0.2,0.1-0.3,0.3-0.4,0.4c-0.1,0.2-0.1,0.4-0.1,0.7c0,0.2,0,0.4,0.1,0.5c0.1,0.1,0.2,0.3,0.3,0.4
		c0.1,0.1,0.3,0.2,0.5,0.3c0.2,0.1,0.4,0.1,0.7,0.2l1.4,0.4c0.4,0.1,0.8,0.2,1.1,0.4c0.3,0.1,0.6,0.3,0.7,0.5
		c0.2,0.2,0.3,0.4,0.4,0.7c0.1,0.3,0.1,0.6,0.1,0.9c0,0.4-0.1,0.7-0.2,1c-0.1,0.3-0.4,0.5-0.6,0.7c-0.3,0.2-0.6,0.3-0.9,0.4
		c-0.4,0.1-0.8,0.1-1.2,0.1c-0.6,0-1.1-0.1-1.6-0.3c-0.5-0.2-0.9-0.4-1.2-0.8v0.9c-0.1,0-0.3,0.1-0.4,0.1c-0.2,0-0.3,0-0.4-0.1V27.4
		z"/>
	<path class="st0" d="M119.9,22.8h-1.3c0-0.1-0.1-0.3-0.1-0.4s0-0.3,0.1-0.4h1.3v-2.3l1.1-0.6V22h2.1c0,0.1,0.1,0.3,0.1,0.4
		s0,0.3-0.1,0.4H121v5.4c0,0.3,0,0.6,0.1,0.8c0.1,0.2,0.2,0.3,0.3,0.4c0.2,0.2,0.5,0.3,0.8,0.3c0.3,0,0.5,0,0.7-0.1
		c0.2-0.1,0.3-0.1,0.4-0.2v0.9c-0.2,0.1-0.3,0.2-0.6,0.2c-0.2,0-0.4,0.1-0.6,0.1c-0.7,0-1.2-0.2-1.6-0.6c-0.4-0.4-0.5-0.9-0.5-1.7
		V22.8z"/>
	<path class="st0" d="M130,30c-0.3,0.2-0.7,0.3-1.1,0.4c-0.4,0.1-0.9,0.2-1.4,0.2c-0.7,0-1.4-0.1-1.9-0.4c-0.5-0.2-0.9-0.6-1.3-1
		c-0.3-0.4-0.6-0.9-0.7-1.4c-0.2-0.5-0.2-1.1-0.2-1.7s0.1-1.1,0.2-1.7c0.1-0.5,0.4-1,0.6-1.4c0.3-0.4,0.7-0.7,1.1-1
		c0.4-0.2,1-0.4,1.6-0.4c0.6,0,1.2,0.1,1.6,0.4c0.4,0.2,0.8,0.6,1.1,1c0.3,0.4,0.5,0.9,0.6,1.4c0.1,0.5,0.2,1.1,0.2,1.7v0.3h-5.8
		c0,0.4,0.1,0.8,0.2,1.2c0.1,0.4,0.3,0.7,0.6,1c0.2,0.3,0.5,0.5,0.9,0.7c0.4,0.2,0.8,0.3,1.2,0.3c0.6,0,1.1-0.1,1.5-0.3
		c0.4-0.2,0.7-0.4,1.1-0.6V30z M129.2,25.7c0-0.3,0-0.7-0.1-1c-0.1-0.4-0.2-0.7-0.3-1c-0.2-0.3-0.4-0.5-0.7-0.7
		c-0.3-0.2-0.7-0.3-1.2-0.3c-0.4,0-0.8,0.1-1.1,0.3c-0.3,0.2-0.5,0.5-0.7,0.8c-0.2,0.3-0.3,0.6-0.4,1c-0.1,0.4-0.1,0.7-0.1,1H129.2z
		"/>
	<path class="st0" d="M132.3,29.6v-6.8h-1.2c0-0.1-0.1-0.3-0.1-0.4s0-0.3,0.1-0.4h2.1v1.7c0.1-0.2,0.2-0.4,0.3-0.6
		c0.2-0.2,0.3-0.4,0.5-0.6c0.2-0.2,0.4-0.3,0.7-0.4s0.5-0.2,0.8-0.2c0.2,0,0.4,0,0.5,0c0.1,0,0.3,0.1,0.4,0.1l-0.1,1
		c-0.1,0-0.2-0.1-0.3-0.1c-0.1,0-0.3-0.1-0.6-0.1c-0.2,0-0.5,0.1-0.7,0.2c-0.2,0.1-0.5,0.3-0.7,0.6c-0.2,0.3-0.4,0.6-0.5,1
		c-0.1,0.4-0.2,0.9-0.2,1.5v3.4h1.3c0,0.1,0.1,0.3,0.1,0.4s0,0.3-0.1,0.4h-3.5c0-0.1-0.1-0.3-0.1-0.4s0-0.3,0.1-0.4H132.3z"/>
	<path class="st0" d="M142.2,19.2h-1.3c0-0.1-0.1-0.3-0.1-0.4c0-0.2,0-0.3,0.1-0.4h3.7c0,0.1,0.1,0.3,0.1,0.4c0,0.2,0,0.3-0.1,0.4
		h-1.3v7c0,0.7,0.1,1.2,0.3,1.7c0.2,0.4,0.4,0.8,0.7,1.1c0.3,0.3,0.7,0.5,1,0.6c0.4,0.1,0.8,0.2,1.2,0.2c0.4,0,0.8-0.1,1.2-0.2
		c0.4-0.1,0.7-0.3,1-0.6c0.3-0.3,0.5-0.6,0.7-1c0.2-0.4,0.3-1,0.3-1.6v-7.2h-1.3c0-0.1-0.1-0.3-0.1-0.4c0-0.2,0-0.3,0.1-0.4h3.7
		c0,0.1,0.1,0.3,0.1,0.4c0,0.2,0,0.3-0.1,0.4H151v7.2c0,0.6-0.1,1.1-0.2,1.7c-0.2,0.5-0.4,1-0.8,1.4c-0.3,0.4-0.8,0.7-1.3,0.9
		c-0.5,0.2-1.2,0.3-2,0.3c-0.8,0-1.4-0.1-2-0.3c-0.6-0.2-1-0.5-1.4-0.9c-0.4-0.4-0.6-0.9-0.8-1.4c-0.2-0.6-0.3-1.2-0.3-1.8V19.2z"/>
	<path class="st0" d="M154.1,29.6v-6.8h-1.2c0-0.1-0.1-0.3-0.1-0.4s0-0.3,0.1-0.4h2.1v1.3c0.2-0.4,0.6-0.8,1-1.1
		c0.4-0.3,1-0.5,1.8-0.5c0.9,0,1.5,0.2,2,0.7c0.5,0.5,0.7,1.2,0.7,2.2v4.9h1.2c0,0.1,0.1,0.3,0.1,0.4s0,0.3-0.1,0.4h-3.3
		c0-0.1-0.1-0.3-0.1-0.4s0-0.3,0.1-0.4h1.1v-4.5c0-0.4,0-0.7-0.1-1c0-0.3-0.1-0.6-0.3-0.8c-0.1-0.2-0.3-0.4-0.6-0.5
		c-0.2-0.1-0.6-0.2-0.9-0.2c-0.3,0-0.6,0.1-0.9,0.2c-0.3,0.1-0.5,0.3-0.8,0.5c-0.2,0.2-0.4,0.6-0.5,1c-0.1,0.4-0.2,0.9-0.2,1.5v3.8
		h1.1c0,0.1,0.1,0.3,0.1,0.4s0,0.3-0.1,0.4h-3.3c0-0.1-0.1-0.3-0.1-0.4s0-0.3,0.1-0.4H154.1z"/>
	<path class="st0" d="M163.5,29.6v-6.8h-1.2c0-0.1-0.1-0.3-0.1-0.4s0-0.3,0.1-0.4h2.2v7.6h1.2c0,0.1,0.1,0.3,0.1,0.4s0,0.3-0.1,0.4
		h-3.4c0-0.1-0.1-0.3-0.1-0.4s0-0.3,0.1-0.4H163.5z M163.8,20.1c-0.2,0-0.4-0.1-0.5-0.2c-0.2-0.2-0.2-0.4-0.2-0.6
		c0-0.3,0.1-0.5,0.2-0.6c0.2-0.2,0.3-0.2,0.5-0.2c0.2,0,0.4,0.1,0.5,0.2c0.2,0.2,0.2,0.4,0.2,0.6c0,0.3-0.1,0.5-0.2,0.6
		C164.2,20,164,20.1,163.8,20.1z"/>
	<path class="st0" d="M166.5,22.8h-0.9c0-0.1-0.1-0.3-0.1-0.4s0-0.3,0.1-0.4h3.1c0,0.1,0.1,0.3,0.1,0.4s0,0.3-0.1,0.4h-1.2l2.3,6.7
		l2.3-6.7H171c0-0.1-0.1-0.3-0.1-0.4s0-0.3,0.1-0.4h3c0,0.1,0.1,0.3,0.1,0.4s0,0.3-0.1,0.4h-0.9l-2.7,7.7h-1.2L166.5,22.8z"/>
	<path class="st0" d="M180.7,30c-0.3,0.2-0.7,0.3-1.1,0.4c-0.4,0.1-0.9,0.2-1.4,0.2c-0.7,0-1.4-0.1-1.9-0.4c-0.5-0.2-0.9-0.6-1.3-1
		c-0.3-0.4-0.6-0.9-0.7-1.4c-0.2-0.5-0.2-1.1-0.2-1.7s0.1-1.1,0.2-1.7c0.1-0.5,0.4-1,0.6-1.4c0.3-0.4,0.7-0.7,1.1-1
		c0.4-0.2,1-0.4,1.6-0.4c0.6,0,1.2,0.1,1.6,0.4c0.4,0.2,0.8,0.6,1.1,1c0.3,0.4,0.5,0.9,0.6,1.4c0.1,0.5,0.2,1.1,0.2,1.7v0.3h-5.8
		c0,0.4,0.1,0.8,0.2,1.2c0.1,0.4,0.3,0.7,0.6,1c0.2,0.3,0.5,0.5,0.9,0.7c0.4,0.2,0.8,0.3,1.2,0.3c0.6,0,1.1-0.1,1.5-0.3
		c0.4-0.2,0.7-0.4,1.1-0.6V30z M180,25.7c0-0.3,0-0.7-0.1-1c-0.1-0.4-0.2-0.7-0.3-1c-0.2-0.3-0.4-0.5-0.7-0.7
		c-0.3-0.2-0.7-0.3-1.2-0.3c-0.4,0-0.8,0.1-1.1,0.3c-0.3,0.2-0.5,0.5-0.7,0.8c-0.2,0.3-0.3,0.6-0.4,1c-0.1,0.4-0.1,0.7-0.1,1H180z"
		/>
	<path class="st0" d="M183.1,29.6v-6.8h-1.2c0-0.1-0.1-0.3-0.1-0.4s0-0.3,0.1-0.4h2.1v1.7c0.1-0.2,0.2-0.4,0.3-0.6
		c0.2-0.2,0.3-0.4,0.5-0.6c0.2-0.2,0.4-0.3,0.7-0.4s0.5-0.2,0.8-0.2c0.2,0,0.4,0,0.5,0c0.1,0,0.3,0.1,0.4,0.1l-0.1,1
		c-0.1,0-0.2-0.1-0.3-0.1c-0.1,0-0.3-0.1-0.6-0.1c-0.2,0-0.5,0.1-0.7,0.2c-0.2,0.1-0.5,0.3-0.7,0.6c-0.2,0.3-0.4,0.6-0.5,1
		c-0.1,0.4-0.2,0.9-0.2,1.5v3.4h1.3c0,0.1,0.1,0.3,0.1,0.4s0,0.3-0.1,0.4h-3.5c0-0.1-0.1-0.3-0.1-0.4s0-0.3,0.1-0.4H183.1z"/>
	<path class="st0" d="M187.5,27.4c0.1,0,0.1,0,0.2,0s0.1,0,0.2,0c0.1,0,0.1,0,0.2,0c0.1,0,0.1,0,0.2,0v0.3c0,0.3,0.1,0.6,0.2,0.9
		c0.1,0.3,0.3,0.5,0.6,0.6c0.2,0.2,0.5,0.3,0.8,0.4c0.3,0.1,0.7,0.1,1,0.1c0.3,0,0.5,0,0.8-0.1c0.2,0,0.4-0.1,0.6-0.2
		c0.2-0.1,0.3-0.3,0.4-0.4c0.1-0.2,0.2-0.4,0.2-0.7c0-0.2,0-0.5-0.1-0.6s-0.2-0.3-0.4-0.4c-0.2-0.1-0.4-0.2-0.6-0.3
		c-0.2-0.1-0.5-0.2-0.7-0.2l-1.5-0.4c-0.7-0.2-1.2-0.4-1.5-0.8c-0.3-0.3-0.5-0.8-0.5-1.3c0-0.4,0.1-0.8,0.2-1.1
		c0.2-0.3,0.4-0.6,0.6-0.8c0.3-0.2,0.6-0.3,0.9-0.4c0.3-0.1,0.7-0.1,1-0.1c0.6,0,1,0.1,1.4,0.3c0.4,0.2,0.7,0.4,0.9,0.7V22
		c0.1,0,0.1,0,0.2,0c0.1,0,0.1,0,0.2,0c0.2,0,0.3,0,0.4,0.1v2.7c-0.1,0-0.3,0.1-0.4,0.1c-0.2,0-0.3,0-0.4-0.1v-0.4
		c0-0.2,0-0.4-0.1-0.6c-0.1-0.2-0.2-0.4-0.4-0.6c-0.2-0.2-0.4-0.3-0.7-0.4c-0.3-0.1-0.6-0.2-1-0.2c-0.2,0-0.5,0-0.7,0.1
		s-0.4,0.1-0.6,0.2c-0.2,0.1-0.3,0.3-0.4,0.4c-0.1,0.2-0.1,0.4-0.1,0.7c0,0.2,0,0.4,0.1,0.5c0.1,0.1,0.2,0.3,0.3,0.4
		s0.3,0.2,0.5,0.3c0.2,0.1,0.4,0.1,0.7,0.2l1.4,0.4c0.4,0.1,0.8,0.2,1.1,0.4c0.3,0.1,0.6,0.3,0.7,0.5c0.2,0.2,0.3,0.4,0.4,0.7
		c0.1,0.3,0.1,0.6,0.1,0.9c0,0.4-0.1,0.7-0.2,1c-0.1,0.3-0.4,0.5-0.6,0.7c-0.3,0.2-0.6,0.3-0.9,0.4c-0.4,0.1-0.8,0.1-1.2,0.1
		c-0.6,0-1.1-0.1-1.6-0.3c-0.5-0.2-0.9-0.4-1.2-0.8v0.9c-0.1,0-0.3,0.1-0.4,0.1c-0.2,0-0.3,0-0.4-0.1V27.4z"/>
	<path class="st0" d="M196.2,29.6v-6.8h-1.2c0-0.1-0.1-0.3-0.1-0.4s0-0.3,0.1-0.4h2.2v7.6h1.2c0,0.1,0.1,0.3,0.1,0.4s0,0.3-0.1,0.4
		h-3.4c0-0.1-0.1-0.3-0.1-0.4s0-0.3,0.1-0.4H196.2z M196.5,20.1c-0.2,0-0.4-0.1-0.5-0.2c-0.2-0.2-0.2-0.4-0.2-0.6
		c0-0.3,0.1-0.5,0.2-0.6c0.2-0.2,0.3-0.2,0.5-0.2c0.2,0,0.4,0.1,0.5,0.2c0.2,0.2,0.2,0.4,0.2,0.6c0,0.3-0.1,0.5-0.2,0.6
		C196.9,20,196.7,20.1,196.5,20.1z"/>
	<path class="st0" d="M200.2,22.8h-1.3c0-0.1-0.1-0.3-0.1-0.4s0-0.3,0.1-0.4h1.3v-2.3l1.1-0.6V22h2.1c0,0.1,0.1,0.3,0.1,0.4
		s0,0.3-0.1,0.4h-2.1v5.4c0,0.3,0,0.6,0.1,0.8c0.1,0.2,0.2,0.3,0.3,0.4c0.2,0.2,0.5,0.3,0.8,0.3c0.3,0,0.5,0,0.7-0.1
		s0.3-0.1,0.4-0.2v0.9c-0.2,0.1-0.3,0.2-0.6,0.2c-0.2,0-0.4,0.1-0.6,0.1c-0.7,0-1.2-0.2-1.6-0.6c-0.4-0.4-0.5-0.9-0.5-1.7V22.8z"/>
	<path class="st0" d="M204.3,32.3c0.2,0.1,0.4,0.1,0.6,0.2c0.2,0,0.4,0.1,0.6,0.1c0.2,0,0.4,0,0.5-0.1c0.2,0,0.3-0.1,0.5-0.2
		c0.1-0.1,0.3-0.3,0.4-0.5c0.1-0.2,0.3-0.5,0.4-0.9l0.1-0.3l-2.8-7.7h-0.9c0-0.1-0.1-0.3-0.1-0.4s0-0.3,0.1-0.4h3.2
		c0,0.1,0.1,0.3,0.1,0.4s0,0.3-0.1,0.4h-1.1l2.3,6.5l2.2-6.5h-1.1c0-0.1-0.1-0.3-0.1-0.4s0-0.3,0.1-0.4h3c0,0.1,0.1,0.3,0.1,0.4
		s0,0.3-0.1,0.4h-0.9l-3,8.5c-0.3,0.7-0.6,1.2-0.9,1.5c-0.3,0.2-0.5,0.4-0.8,0.5c-0.3,0.1-0.6,0.1-0.9,0.1c-0.3,0-0.5,0-0.7-0.1
		c-0.2,0-0.3-0.1-0.5-0.2V32.3z"/>
</g>
<g>
	<path class="st1" d="M70.2,39.2h2.4l5.3,9.1l5.3-9.1h2.4l0.8,17.5H84l-0.6-13.5l-4.9,8.3h-1.3l-4.9-8.2l-0.6,13.3h-2.4L70.2,39.2z"
		/>
	<path class="st1" d="M96.7,55.3c-0.5,0.6-1.1,1.1-1.8,1.4c-0.7,0.3-1.5,0.4-2.3,0.4c-0.5,0-1-0.1-1.5-0.2c-0.5-0.1-1-0.4-1.4-0.7
		c-0.4-0.3-0.7-0.7-1-1.2c-0.3-0.5-0.4-1.1-0.4-1.8c0-1.3,0.5-2.4,1.4-3.2c0.9-0.8,2.2-1.2,4-1.2c0.3,0,0.6,0,0.9,0
		c0.3,0,0.6,0,0.9,0.1c0.3,0,0.5,0,0.7,0.1c0.2,0,0.4,0,0.4,0.1v-0.4c0-0.9-0.3-1.6-0.8-2c-0.6-0.4-1.3-0.6-2.2-0.6
		c-0.9,0-1.7,0.1-2.2,0.4c-0.5,0.3-1,0.5-1.4,0.8L89,45.7c0.2-0.2,0.5-0.4,0.8-0.5c0.3-0.2,0.6-0.3,1-0.5c0.4-0.1,0.9-0.3,1.4-0.4
		c0.5-0.1,1.1-0.1,1.8-0.1c1.6,0,2.8,0.4,3.7,1.1s1.4,1.8,1.4,3.2v7.1c0,0.4,0,0.8,0,1.1h-2.2L96.7,55.3z M96.7,50.9
		c-0.1,0-0.2,0-0.4-0.1c-0.2,0-0.4,0-0.7-0.1s-0.5,0-0.8-0.1c-0.3,0-0.6,0-0.9,0c-0.7,0-1.2,0.1-1.6,0.2c-0.4,0.2-0.7,0.4-1,0.6
		c-0.2,0.2-0.4,0.5-0.5,0.8c-0.1,0.3-0.1,0.6-0.1,0.8c0,0.7,0.2,1.2,0.7,1.5c0.5,0.3,1.1,0.5,1.9,0.5c0.5,0,0.9-0.1,1.3-0.2
		c0.4-0.2,0.8-0.4,1.1-0.6c0.3-0.3,0.6-0.6,0.8-0.9c0.2-0.3,0.3-0.7,0.3-1.1V50.9z"/>
	<path class="st1" d="M101.7,56.7v-11c0-0.4,0-0.8,0-1.3h2.3l0.1,1.8c0.2-0.2,0.4-0.4,0.6-0.7c0.2-0.3,0.5-0.5,0.8-0.7
		s0.7-0.4,1.2-0.5c0.4-0.1,1-0.2,1.5-0.2c1.6,0,2.8,0.5,3.5,1.4c0.8,0.9,1.2,2.2,1.2,3.8v7.3h-2.4v-7.1c0-1.1-0.2-2-0.7-2.5
		c-0.5-0.5-1.2-0.8-2.1-0.8c-0.7,0-1.3,0.1-1.7,0.4c-0.5,0.3-0.8,0.6-1.1,1.1c-0.3,0.4-0.5,1-0.6,1.5c-0.1,0.6-0.2,1.2-0.2,1.7v5.7
		H101.7z"/>
	<path class="st1" d="M123,55.3c-0.5,0.6-1.1,1.1-1.8,1.4c-0.7,0.3-1.5,0.4-2.3,0.4c-0.5,0-1-0.1-1.5-0.2c-0.5-0.1-1-0.4-1.4-0.7
		c-0.4-0.3-0.7-0.7-1-1.2c-0.3-0.5-0.4-1.1-0.4-1.8c0-1.3,0.5-2.4,1.4-3.2c0.9-0.8,2.2-1.2,4-1.2c0.3,0,0.6,0,0.9,0
		c0.3,0,0.6,0,0.9,0.1c0.3,0,0.5,0,0.7,0.1c0.2,0,0.4,0,0.4,0.1v-0.4c0-0.9-0.3-1.6-0.8-2c-0.6-0.4-1.3-0.6-2.2-0.6
		c-0.9,0-1.7,0.1-2.2,0.4s-1,0.5-1.4,0.8l-1.1-1.6c0.2-0.2,0.5-0.4,0.8-0.5c0.3-0.2,0.6-0.3,1-0.5c0.4-0.1,0.9-0.3,1.4-0.4
		c0.5-0.1,1.1-0.1,1.8-0.1c1.6,0,2.8,0.4,3.7,1.1s1.4,1.8,1.4,3.2v7.1c0,0.4,0,0.8,0,1.1h-2.2L123,55.3z M123,50.9
		c-0.1,0-0.2,0-0.4-0.1s-0.4,0-0.7-0.1s-0.5,0-0.8-0.1c-0.3,0-0.6,0-0.9,0c-0.7,0-1.2,0.1-1.6,0.2c-0.4,0.2-0.7,0.4-1,0.6
		c-0.2,0.2-0.4,0.5-0.5,0.8c-0.1,0.3-0.1,0.6-0.1,0.8c0,0.7,0.2,1.2,0.7,1.5c0.5,0.3,1.1,0.5,1.9,0.5c0.5,0,0.9-0.1,1.3-0.2
		c0.4-0.2,0.8-0.4,1.1-0.6c0.3-0.3,0.6-0.6,0.8-0.9c0.2-0.3,0.3-0.7,0.3-1.1V50.9z"/>
	<path class="st1" d="M129.6,59.2c0.4,0.3,0.9,0.5,1.5,0.7c0.6,0.2,1.3,0.3,2.1,0.3c1.2,0,2-0.3,2.6-1c0.6-0.6,0.9-1.5,0.9-2.5v-1.5
		c-0.1,0.1-0.3,0.2-0.5,0.4c-0.2,0.2-0.5,0.4-0.8,0.5c-0.3,0.2-0.7,0.3-1.1,0.4c-0.4,0.1-0.9,0.2-1.4,0.2c-0.9,0-1.7-0.2-2.4-0.5
		c-0.7-0.3-1.3-0.7-1.7-1.3c-0.5-0.5-0.8-1.2-1.1-1.9c-0.2-0.7-0.4-1.6-0.4-2.4c0-0.9,0.2-1.8,0.5-2.6c0.3-0.8,0.8-1.5,1.4-2.1
		c0.6-0.6,1.3-1,2.2-1.4c0.8-0.3,1.8-0.5,2.8-0.5c1,0,1.9,0.1,2.8,0.3c0.9,0.2,1.6,0.4,2.1,0.6v11.7c0,1.8-0.5,3.1-1.5,4.1
		c-1,1-2.5,1.5-4.3,1.5c-1.2,0-2.2-0.1-3-0.4c-0.7-0.3-1.3-0.6-1.8-0.9L129.6,59.2z M136.7,46.7c-0.2-0.1-0.4-0.1-0.8-0.2
		c-0.4-0.1-0.9-0.1-1.7-0.1c-0.7,0-1.3,0.1-1.8,0.3c-0.5,0.2-1,0.5-1.4,0.9c-0.4,0.4-0.7,0.9-0.9,1.4c-0.2,0.5-0.3,1.1-0.3,1.8
		c0,0.6,0.1,1.1,0.2,1.6c0.1,0.5,0.3,0.9,0.6,1.3c0.3,0.4,0.7,0.7,1.1,0.9s1,0.3,1.6,0.3c0.6,0,1.1-0.1,1.5-0.3
		c0.4-0.2,0.8-0.4,1.1-0.7c0.3-0.3,0.5-0.6,0.6-1c0.1-0.4,0.2-0.7,0.2-1.1V46.7z"/>
	<path class="st1" d="M152.9,54.9c-0.1,0.2-0.4,0.4-0.6,0.6c-0.3,0.2-0.6,0.5-1.1,0.7c-0.4,0.2-1,0.4-1.6,0.6
		c-0.6,0.2-1.3,0.2-2.1,0.2c-0.9,0-1.8-0.2-2.6-0.5c-0.8-0.3-1.5-0.8-2-1.3c-0.6-0.6-1-1.3-1.3-2.1c-0.3-0.8-0.5-1.7-0.5-2.7
		c0-0.9,0.1-1.7,0.4-2.5c0.3-0.8,0.7-1.5,1.3-2c0.5-0.6,1.2-1,1.9-1.4c0.7-0.3,1.6-0.5,2.5-0.5c1.1,0,2,0.2,2.7,0.6
		c0.8,0.4,1.4,0.9,1.9,1.6c0.5,0.7,0.8,1.4,1.1,2.3c0.2,0.9,0.3,1.8,0.3,2.7h-9.6c0,0.5,0.1,1,0.4,1.5c0.2,0.5,0.5,0.8,0.9,1.2
		c0.4,0.3,0.8,0.6,1.3,0.8s1,0.3,1.5,0.3c1,0,1.9-0.2,2.5-0.5c0.7-0.4,1.1-0.7,1.4-1L152.9,54.9z M150.8,49.6
		c-0.1-0.9-0.4-1.8-1-2.4c-0.6-0.7-1.4-1-2.5-1c-0.6,0-1.1,0.1-1.5,0.3c-0.4,0.2-0.8,0.4-1.1,0.8c-0.3,0.3-0.6,0.7-0.7,1.1
		c-0.2,0.4-0.3,0.8-0.3,1.3H150.8z"/>
	<path class="st1" d="M155.3,56.7v-11c0-0.4,0-0.8,0-1.3h2.3l0.1,1.8c0.1-0.2,0.3-0.4,0.6-0.7c0.2-0.3,0.5-0.5,0.8-0.7
		c0.3-0.2,0.7-0.4,1.1-0.5c0.4-0.1,0.9-0.2,1.5-0.2c0.9,0,1.7,0.2,2.4,0.6c0.6,0.4,1.1,0.9,1.5,1.6c0.5-0.6,1.1-1.1,1.8-1.5
		c0.7-0.4,1.6-0.7,2.6-0.7c1.6,0,2.7,0.5,3.5,1.4c0.8,0.9,1.1,2.2,1.1,3.8v7.3h-2.4v-7.1c0-1.1-0.2-2-0.7-2.5
		c-0.4-0.5-1.1-0.8-2-0.8c-0.5,0-0.9,0.1-1.4,0.3c-0.4,0.2-0.8,0.5-1.1,0.8c-0.3,0.3-0.5,0.7-0.7,1.2c-0.2,0.4-0.2,0.9-0.2,1.4v6.8
		h-2.4v-7.1c0-1.1-0.2-2-0.7-2.5c-0.4-0.5-1.1-0.8-1.9-0.8c-0.6,0-1.2,0.1-1.6,0.4c-0.4,0.3-0.8,0.6-1.1,1.1c-0.3,0.4-0.5,1-0.6,1.5
		c-0.1,0.6-0.2,1.2-0.2,1.7v5.7H155.3z"/>
	<path class="st1" d="M188.2,54.9c-0.1,0.2-0.4,0.4-0.6,0.6c-0.3,0.2-0.6,0.5-1.1,0.7c-0.4,0.2-1,0.4-1.6,0.6
		c-0.6,0.2-1.3,0.2-2.1,0.2c-0.9,0-1.8-0.2-2.6-0.5c-0.8-0.3-1.5-0.8-2-1.3c-0.6-0.6-1-1.3-1.3-2.1c-0.3-0.8-0.5-1.7-0.5-2.7
		c0-0.9,0.1-1.7,0.4-2.5c0.3-0.8,0.7-1.5,1.3-2c0.5-0.6,1.2-1,1.9-1.4c0.7-0.3,1.6-0.5,2.5-0.5c1.1,0,2,0.2,2.7,0.6
		c0.8,0.4,1.4,0.9,1.9,1.6c0.5,0.7,0.8,1.4,1.1,2.3c0.2,0.9,0.3,1.8,0.3,2.7h-9.6c0,0.5,0.1,1,0.4,1.5c0.2,0.5,0.5,0.8,0.9,1.2
		c0.4,0.3,0.8,0.6,1.3,0.8s1,0.3,1.5,0.3c1,0,1.9-0.2,2.5-0.5c0.7-0.4,1.1-0.7,1.4-1L188.2,54.9z M186.1,49.6
		c-0.1-0.9-0.4-1.8-1-2.4c-0.6-0.7-1.4-1-2.5-1c-0.6,0-1.1,0.1-1.5,0.3c-0.4,0.2-0.8,0.4-1.1,0.8c-0.3,0.3-0.6,0.7-0.7,1.1
		c-0.2,0.4-0.3,0.8-0.3,1.3H186.1z"/>
	<path class="st1" d="M190.6,56.7v-11c0-0.4,0-0.8,0-1.3h2.3l0.1,1.8c0.2-0.2,0.4-0.4,0.6-0.7c0.2-0.3,0.5-0.5,0.8-0.7
		s0.7-0.4,1.2-0.5c0.4-0.1,1-0.2,1.5-0.2c1.6,0,2.8,0.5,3.5,1.4c0.8,0.9,1.2,2.2,1.2,3.8v7.3h-2.4v-7.1c0-1.1-0.2-2-0.7-2.5
		c-0.5-0.5-1.2-0.8-2.1-0.8c-0.7,0-1.3,0.1-1.7,0.4c-0.5,0.3-0.8,0.6-1.1,1.1c-0.3,0.4-0.5,1-0.6,1.5c-0.1,0.6-0.2,1.2-0.2,1.7v5.7
		H190.6z"/>
	<path class="st1" d="M205.4,46.5h-2.2v-2h2.2v-4h2.4v4h3.6v2h-3.6v6c0,1,0.2,1.7,0.5,2c0.3,0.4,0.7,0.6,1.3,0.6
		c0.5,0,0.8-0.1,1.1-0.2c0.3-0.1,0.6-0.4,0.9-0.6l1.1,1.4c-0.5,0.5-1,0.8-1.6,1.1c-0.5,0.2-1.2,0.3-1.9,0.3c-1.3,0-2.2-0.3-2.9-1.1
		c-0.6-0.7-0.9-1.8-0.9-3.3V46.5z"/>
	<path class="st1" d="M219.2,52.5c0.2,0.3,0.5,0.6,0.8,0.9c0.3,0.3,0.7,0.5,1,0.8c0.4,0.2,0.8,0.4,1.3,0.6c0.5,0.1,1,0.2,1.6,0.2
		c1.2,0,2.1-0.3,2.7-0.8c0.6-0.5,1-1.2,1-2.1c0-1-0.4-1.7-1.1-2.2c-0.7-0.5-1.8-0.9-3.2-1.2c-0.8-0.2-1.4-0.4-2-0.7
		c-0.6-0.3-1.1-0.6-1.6-1.1c-0.4-0.4-0.8-0.9-1-1.5c-0.2-0.6-0.4-1.2-0.4-1.9c0-0.6,0.1-1.3,0.4-1.8c0.2-0.6,0.6-1.1,1.1-1.5
		c0.5-0.4,1.1-0.8,1.8-1.1c0.7-0.3,1.6-0.4,2.5-0.4c0.9,0,1.6,0.1,2.2,0.3c0.6,0.2,1.2,0.4,1.6,0.7c0.4,0.3,0.8,0.5,1.1,0.8
		c0.3,0.3,0.5,0.5,0.6,0.7l-1.7,1.6c-0.1-0.1-0.3-0.3-0.5-0.5c-0.2-0.2-0.5-0.4-0.8-0.6c-0.3-0.2-0.7-0.4-1.1-0.5
		c-0.4-0.1-0.9-0.2-1.5-0.2s-1,0.1-1.4,0.2c-0.4,0.1-0.7,0.3-1,0.6c-0.3,0.2-0.5,0.5-0.6,0.8c-0.1,0.3-0.2,0.6-0.2,0.9
		c0,0.4,0.1,0.8,0.3,1.1c0.2,0.3,0.5,0.6,0.8,0.8c0.3,0.2,0.8,0.4,1.3,0.6c0.5,0.2,1.1,0.3,1.8,0.5c0.6,0.2,1.3,0.4,1.9,0.6
		c0.6,0.3,1.2,0.6,1.7,1c0.5,0.4,0.9,1,1.2,1.6c0.3,0.6,0.4,1.4,0.4,2.3c0,0.8-0.2,1.4-0.5,2.1c-0.3,0.6-0.7,1.2-1.3,1.6
		c-0.6,0.5-1.2,0.8-2,1.1c-0.8,0.3-1.6,0.4-2.4,0.4c-0.8,0-1.6-0.1-2.2-0.3c-0.7-0.2-1.3-0.4-1.8-0.7c-0.6-0.3-1-0.6-1.4-1
		c-0.4-0.4-0.7-0.7-1-1.1L219.2,52.5z"/>
	<path class="st1" d="M243.4,55c-0.5,0.6-1.2,1.1-2,1.5c-0.8,0.4-1.7,0.6-2.8,0.6c-1,0-1.9-0.2-2.7-0.5c-0.8-0.3-1.5-0.8-2-1.3
		c-0.6-0.6-1-1.3-1.3-2c-0.3-0.8-0.4-1.7-0.4-2.6c0-0.9,0.2-1.7,0.5-2.5c0.3-0.8,0.8-1.5,1.3-2.1c0.6-0.6,1.2-1.1,2-1.4
		c0.8-0.3,1.6-0.5,2.6-0.5c1,0,1.9,0.2,2.7,0.6c0.8,0.4,1.5,0.9,2,1.5l-1.6,1.5c-0.4-0.5-0.8-0.8-1.3-1.1c-0.5-0.3-1.1-0.4-1.9-0.4
		c-0.6,0-1.2,0.1-1.7,0.4c-0.5,0.2-0.9,0.6-1.3,1c-0.3,0.4-0.6,0.9-0.8,1.4c-0.2,0.5-0.3,1.1-0.3,1.7c0,0.6,0.1,1.1,0.3,1.6
		c0.2,0.5,0.4,1,0.8,1.4c0.3,0.4,0.8,0.7,1.3,1c0.5,0.2,1.1,0.4,1.7,0.4c0.7,0,1.4-0.1,1.9-0.4c0.6-0.3,1-0.6,1.4-1.1L243.4,55z"/>
	<path class="st1" d="M245.2,39.2h2.3v7.1c0.2-0.2,0.4-0.4,0.6-0.7c0.2-0.2,0.5-0.5,0.8-0.7s0.7-0.4,1.2-0.5
		c0.4-0.1,0.9-0.2,1.5-0.2c1.6,0,2.8,0.5,3.5,1.4c0.8,0.9,1.2,2.2,1.2,3.8v7.3h-2.4v-7.1c0-1.1-0.2-2-0.7-2.5
		c-0.5-0.5-1.2-0.8-2.1-0.8c-0.7,0-1.3,0.1-1.7,0.4c-0.5,0.3-0.8,0.6-1.1,1.1c-0.3,0.4-0.5,1-0.6,1.5c-0.1,0.6-0.2,1.2-0.2,1.7v5.7
		h-2.4V39.2z"/>
	<path class="st1" d="M264.8,57.1c-0.9,0-1.8-0.2-2.6-0.5c-0.8-0.3-1.5-0.8-2-1.4c-0.6-0.6-1-1.3-1.3-2.1c-0.3-0.8-0.5-1.6-0.5-2.5
		s0.2-1.7,0.5-2.5c0.3-0.8,0.8-1.5,1.3-2.1c0.6-0.6,1.2-1.1,2-1.4c0.8-0.3,1.7-0.5,2.6-0.5c0.9,0,1.8,0.2,2.6,0.5
		c0.8,0.3,1.5,0.8,2,1.4c0.6,0.6,1,1.3,1.4,2.1c0.3,0.8,0.5,1.6,0.5,2.5s-0.2,1.7-0.5,2.5c-0.3,0.8-0.8,1.5-1.4,2.1
		c-0.6,0.6-1.3,1.1-2,1.4S265.7,57.1,264.8,57.1z M264.8,55c0.6,0,1.2-0.1,1.7-0.4c0.5-0.3,0.9-0.6,1.3-1c0.3-0.4,0.6-0.9,0.8-1.4
		c0.2-0.5,0.3-1.1,0.3-1.6c0-0.5-0.1-1.1-0.3-1.6c-0.2-0.5-0.5-1-0.8-1.4c-0.4-0.4-0.8-0.8-1.3-1c-0.5-0.3-1.1-0.4-1.7-0.4
		c-0.6,0-1.2,0.1-1.7,0.4c-0.5,0.3-0.9,0.6-1.3,1c-0.3,0.4-0.6,0.9-0.8,1.4c-0.2,0.5-0.3,1.1-0.3,1.6c0,0.6,0.1,1.1,0.3,1.6
		c0.2,0.5,0.5,1,0.8,1.4c0.4,0.4,0.8,0.8,1.3,1C263.6,54.9,264.2,55,264.8,55z"/>
	<path class="st1" d="M279.3,57.1c-0.9,0-1.8-0.2-2.6-0.5c-0.8-0.3-1.5-0.8-2-1.4c-0.6-0.6-1-1.3-1.3-2.1c-0.3-0.8-0.5-1.6-0.5-2.5
		s0.2-1.7,0.5-2.5c0.3-0.8,0.8-1.5,1.3-2.1c0.6-0.6,1.2-1.1,2-1.4c0.8-0.3,1.7-0.5,2.6-0.5c0.9,0,1.8,0.2,2.6,0.5
		c0.8,0.3,1.5,0.8,2,1.4c0.6,0.6,1,1.3,1.4,2.1c0.3,0.8,0.5,1.6,0.5,2.5s-0.2,1.7-0.5,2.5c-0.3,0.8-0.8,1.5-1.4,2.1
		c-0.6,0.6-1.3,1.1-2,1.4S280.2,57.1,279.3,57.1z M279.3,55c0.6,0,1.2-0.1,1.7-0.4c0.5-0.3,0.9-0.6,1.3-1c0.3-0.4,0.6-0.9,0.8-1.4
		c0.2-0.5,0.3-1.1,0.3-1.6c0-0.5-0.1-1.1-0.3-1.6c-0.2-0.5-0.5-1-0.8-1.4c-0.4-0.4-0.8-0.8-1.3-1c-0.5-0.3-1.1-0.4-1.7-0.4
		c-0.6,0-1.2,0.1-1.7,0.4c-0.5,0.3-0.9,0.6-1.3,1c-0.3,0.4-0.6,0.9-0.8,1.4c-0.2,0.5-0.3,1.1-0.3,1.6c0,0.6,0.1,1.1,0.3,1.6
		c0.2,0.5,0.5,1,0.8,1.4c0.4,0.4,0.8,0.8,1.3,1C278.1,54.9,278.7,55,279.3,55z"/>
	<path class="st1" d="M287.9,39.2h2.4v17.5h-2.4V39.2z"/>
</g>
<path class="st1" d="M7.6,33.6l-1.9,7c-1.1,4-1.9,9.7-1.9,16.3h10.6c0.1-0.2,0.3-0.3,0.5-0.3c-0.5-0.3-0.9-0.9-1.2-1.6
	c-0.1-0.1-0.1-0.2-0.1-0.4c-0.1-0.3-0.3-0.8-0.5-1c-0.1-0.1-0.2-0.1-0.3-0.2c-0.3-0.2-0.8-0.4-0.8-1l0,0l0,0c0-0.6,0.4-0.9,0.7-1.1
	c0.1-0.1,0.2-0.2,0.3-0.2c0.2-0.2,0.3-0.7,0.4-1c0-0.1,0.1-0.3,0.1-0.4c0.2-0.7,0.5-1.2,0.8-1.5l0,0c-0.4-0.1-0.7-0.4-0.8-0.8
	l-0.2-0.9c-0.1-0.3,0-0.6,0.1-0.8c0.1-0.2,0.4-0.4,0.6-0.5l0.9-0.3c0.2,0,0.4,0,0.6,0c0.3,0.1,0.5,0.2,0.6,0.5
	c0.2-0.6,0.6-1.1,1.1-1.6c0.1-0.1,0.2-0.2,0.3-0.3c0.3-0.2,0.7-0.5,0.8-0.8c0-0.1,0.1-0.2,0.1-0.4c0.1-0.3,0.1-0.9,0.7-1.1l0,0l0,0
	c0.2-0.1,0.4-0.1,0.6,0c0.3,0.1,0.5,0.2,0.6,0.4c0.1,0.1,0.2,0.2,0.3,0.2c0,0,0.1,0,0.1,0c0.3,0.1,0.7,0,1,0c0.1,0,0.3,0,0.4,0
	c0.5,0,0.9,0,1.2,0.1c0.1,0,0.3,0.1,0.5,0.2c0-0.4,0.1-0.8,0.5-1l0.8-0.5c0.3-0.2,0.6-0.2,0.9-0.1c0.3,0.1,0.5,0.2,0.6,0.4l0.5,0.8
	c0.2,0.2,0.2,0.5,0.2,0.8c0,0.2-0.1,0.3-0.2,0.5c0.3,0,0.5,0,0.7,0.1c0.4,0.1,0.7,0.3,1.1,0.5c0.1,0.1,0.2,0.1,0.3,0.2
	c0.3,0.2,0.6,0.4,0.9,0.5c0,0,0.1,0,0.1,0c0.1,0,0.3,0,0.4,0c0.2,0,0.5-0.1,0.7,0c0.2,0.1,0.4,0.2,0.5,0.3l-0.1,0.1l0,0l0.1-0.1
	c0.4,0.5,0.2,1,0.1,1.3c-0.1,0.1-0.1,0.3-0.1,0.4c0,0.3,0.2,0.7,0.3,1.1c0.1,0.1,0.1,0.3,0.1,0.4c0.2,0.6,0.3,1.2,0.2,1.7
	c0.2-0.1,0.5-0.1,0.7,0c0.1,0,0.3,0.1,0.4,0.2l0.7,0.6c0.2,0.2,0.4,0.4,0.4,0.7c0,0.3,0,0.6-0.2,0.8l-0.6,0.7
	c-0.3,0.3-0.7,0.5-1.1,0.4c0,0-0.1,0-0.1,0c0.2,0.5,0.2,1.1,0,2c0,0.1-0.1,0.3-0.1,0.4c-0.1,0.3-0.2,0.8-0.2,1.1
	c0,0.1,0.1,0.2,0.2,0.4c0,0.1,0.1,0.2,0.1,0.3h22.9h1.2h1.1h0.2h0.7v-0.5v-0.8V55v-0.5v-7.3L7.6,33.6z"/>
<path class="st0" d="M43.9,12.3c-0.1,0-0.2,0-0.3,0c0,0-0.1,0-0.1,0l0,0c-0.2,0.1,0.1,0.2,0.2,0.2c0.1,0.1,0.3,0.2,0.4,0.4
	c0,0,0,0,0,0l0.1,0c0,0,0.2-0.1,0.4-0.2c0.1,0,0.5-0.2,0.5-0.3C44.9,12.3,44,12.3,43.9,12.3z"/>
<path class="st0" d="M7.9,32.5l50.9,13.6v-4.6c-0.1,0-0.1,0-0.2,0c-0.2,0-0.5-0.1-0.8-0.2c-0.4-0.1-0.7-0.2-1-0.3
	c-0.3-0.1-0.4-0.1-0.4-0.2c0,0-0.1,0-0.1-0.1c0,0-0.1,0-0.2,0c-0.1,0-0.1,0-0.2,0.1c0,0,0,0.1-0.1,0.1c0,0.1,0,0.2,0,0.2
	c0,0.1,0.1,0.1,0.1,0.1c0,0,0.6,0.5,0.6,0.5c-0.5-0.1-1.6-0.2-2.1-0.3c-0.5,0-1.8,0-2,0c0,0-0.1,0-0.1,0c-0.3-0.1-1.1-0.4-1.8-0.9
	c-0.8-0.5-1.5-1.1-1.8-1.9c-0.1-0.2-0.2-0.6-0.1-1c0-0.1,0-0.1,0.1-0.2c0.1-0.3,0.4-0.6,0.6-1c0.2-0.4,0.2-0.7,0.3-0.9
	c0.1-0.1,0.2-0.2,0.3-0.3c0,0,0.1-0.1,0.1-0.1l0,0c0.3-0.1,0.6,0,0.6,0c0,0,0.8,0.2,1.2,0.4c0.1,0,0.1,0,0.2,0.1
	c0.1,0,0.1,0,0.1,0.1l0,0c0,0,0,0.1-0.1,0.1l0,0c-0.1,0-0.7,0.4-0.8,1c-0.1,0.2,0,0.5,0.1,0.8c0.3,0.5,0.9,0.9,1.4,1
	c0.2,0,0.3,0.1,0.5,0.1c0.5,0,1-0.3,1.5-0.3c0.4,0,0.8,0.1,1.1,0.2c0.3,0.1,0.6,0,0.8-0.1c0.4-0.1,0.8-0.4,1.1-0.7
	c0.3-0.4,0.3-0.7,0.2-1.2c-0.1-0.5,0.1-1,0.2-1.5c0-0.1,0-0.1,0-0.2c0,0,0-0.1,0-0.1c0,0-0.1-0.1-0.1-0.1c-0.1,0-0.1,0-0.2,0
	c0,0-0.1,0-0.1,0c0,0-0.3,0.2-0.7,0.5c0.1-0.4,0.3-0.8,0.5-1.1c0.1-0.2,0.2-0.3,0.3-0.4c0.1-0.1,0.1-0.2,0.1-0.2
	c0,0,0.1-0.1,0.1-0.2c0-0.1,0-0.1,0-0.2c0-0.1-0.1-0.1-0.2-0.2c0,0-0.1,0-0.1,0c-0.2,0-0.4,0.1-0.7,0.2c-0.1,0-0.1,0.1-0.2,0.1
	c0.3-0.4,1-1.3,2-1.9v-1.8c-2.8,0-5.9,1.1-9,1.9c-1.6,0.4-3.2,0.6-4.3,0.6c-0.6,0-1,0-1.3,0c-0.2,0-0.3,0.1-0.4,0.1
	c0,0-0.3,0.1-0.4,0.1l0.5,1.2c-0.2,0.1-0.7,0.2-1.4-0.1c-0.1,0-0.3-0.1-0.4-0.1c0,0-0.1,0-0.1,0c-0.1,0-0.1,0-0.2,0
	c-0.1,0-0.1,0-0.2,0.1c0,0-0.1,0.1-0.1,0.1c0,0.1,0,0.2,0,0.2c0,0,0.1,0.2,0.4,0.5c-0.3,0.1-0.7,0.1-1.1,0c-0.5-0.1-1-0.4-1.3-0.6
	c-0.2-0.1-0.3-0.2-0.4-0.3c-0.1-0.1-0.2-0.1-0.2-0.1c0,0-0.1-0.1-0.3-0.2c-0.1,0-0.2,0-0.2,0c-0.1,0-0.1,0.1-0.1,0.2
	c0,0.1,0,0.2,0,0.3c0,0,0.2,0.4,0.5,0.9c-0.3,0.1-0.7,0.1-1.1,0c-0.4-0.1-0.8-0.3-1.1-0.4c-0.2-0.1-0.3-0.1-0.4-0.2
	c-0.1,0-0.1-0.1-0.1-0.1c0,0-0.3-0.2-0.5-0.2c-0.1,0-0.2,0-0.3,0c-0.1,0-0.1,0.1-0.1,0.1c0,0.1,0,0.2,0.1,0.3
	c0.1,0.2,0.3,0.4,0.4,0.5c-0.2,0-0.4,0-0.6-0.1c-0.8-0.2-1.8-0.7-2.2-1.3c0,0-0.1-0.1-0.1-0.1c0-0.1-0.1-0.1-0.2-0.1
	c-0.1,0-0.2,0-0.3,0.1c0,0-0.1,0.1-0.1,0.1c0,0.1,0,0.2,0,0.3c0.1,0.2,0.2,0.3,0.3,0.5c0,0.1,0.1,0.1,0.1,0.2c-0.1,0-0.1,0-0.2,0
	c-0.3-0.1-0.7-0.3-1.2-0.6c-0.4-0.2-0.6-0.3-0.8-0.4c-0.1,0-0.3,0-0.4,0c-0.1,0-0.2,0.1-0.4,0.2c-0.2,0.2-0.4,0.2-0.6,0.2
	c-0.1,0-0.2,0-0.2,0c0,0-0.1,0-0.1,0l0,0l-1.3-0.3c-0.5-0.1-0.9,0-1.2,0.2c-0.5,0.4-0.8,0.5-1.1,0.4c-0.3-0.1-0.4-0.3-0.5-0.5
	c-0.1-0.3-0.2-0.7-0.3-1.1c0-0.1,0-0.2,0-0.2c0,0,0,0,0-0.1c0.3-0.1,0.5-0.1,0.7-0.2c0.3-0.1,0.6-0.1,0.8-0.2c0.1,0,0.2,0,0.2,0l0,0
	c0.1,0,0.2-0.1,0.2-0.2c0,0,0-0.1,0-0.1c0-0.1-0.1-0.2-0.2-0.2c0,0-0.1,0-0.1,0c0,0-1.1,0.1-2.8,0.7c0,0-0.1,0-0.1,0
	c-0.2,0-0.5-0.3-0.7-0.8c-0.1-0.4-0.1-0.9,0-1.4c0.1,0,0.1,0,0.2,0.1c1.9,0.5,3,0.5,3,0.5c0.1,0,0.2-0.1,0.2-0.2l0-0.1
	c0-0.1-0.1-0.2-0.2-0.2l-0.1,0c-0.1,0-1.1,0-2.9-0.5c-0.1,0-0.2,0-0.2-0.1c0-0.1,0-0.2,0.1-0.3c0-0.2,0.1-0.3,0.1-0.5
	c0.2-0.6,0.8-1.1,1.3-1.3c0.1,0.2,0.2,0.4,0.3,0.6c0.2,0.3,0.4,0.6,0.7,0.9c0.3,0.2,0.6,0.4,1,0.6c0.2,0.3,0.5,0.5,0.9,0.6
	c0.3,0.1,0.5,0.1,0.8,0.1c1,0.1,1.9-0.1,2.8-0.3c0.6-0.2,1.3-0.3,1.9-0.5c1-0.3,2-0.6,3-0.8c2-0.4,3-0.4,3.4-0.4
	c0.1,0,0.2,0,0.3,0.1c0.3,0.1,0.4,0.2,0.4,0.2c0,0,0,0.1,0,0.1c0,0.1-0.1,0.3-0.4,0.6c-0.1,0.1-0.2,0.2-0.3,0.3l-0.6,0.6l0.7,0.4
	c0.1,0.1,0.3,0.1,0.4,0.2c0.4,0.1,0.9,0.1,1.4-0.2c0.2-0.1,0.5-0.3,0.7-0.5l-0.4,1.6l1.1-0.3c0.1,0,0.2-0.1,0.3-0.1c0,0,0.1,0,0.1,0
	c0.4-0.2,0.8-0.4,1-0.5c0.8-0.5,1.4-1.3,1.8-2.2l0.3,0.9l0.8-0.8c0,0,0.1-0.1,0.1-0.1c0.1-0.1,0.3-0.3,0.4-0.6
	c0.3-0.4,0.7-1.2,1-2.1c0,0,0-0.1,0-0.1l0.3,1.2l0.6-2.2l0-0.1c0.7,0,3.1,0.1,5.6,0.3c1.5,0.2,3,0.4,4.3,0.7v-1
	c-0.6-0.1-1.3-0.3-1.9-0.4c0,0-0.1,0-0.1,0c-1.5-0.4-2.7-1-3.4-1.7c-0.7-0.7-1-1.5-0.8-2.3c0.3-0.9,0.9-1.4,1.7-1.6
	c0.9-0.2,2,0,3.1,0.3c0.2,0.1,0.5,0.1,0.7,0.2c0.1,0,0.2,0.1,0.3,0.1c0.1,0,0.2,0,0.3,0.1v-8.2c-1.3-0.4-2-0.5-2-0.5
	S30.7,2.8,15.3,4.6L7.9,32.5z M51.2,33.8c0.2,0.1,0.5,0.2,0.7,0.4c0.2,0.2,0.4,0.6,0.4,1c0,0-0.1,0-0.1,0l0,0l0,0
	c-0.1,0-0.1,0-0.2,0c-0.1,0-0.2-0.1-0.3-0.1l0-0.1l0,0C51.7,34.7,51.6,34.3,51.2,33.8c-0.1,0-0.1,0-0.2,0
	C51,33.8,51.1,33.8,51.2,33.8z M47.3,39.9c0,0.1,0,0.3,0,0.4c-0.1,0.1-0.3,0.2-0.4,0.4c0,0-0.1,0.1-0.1,0.1c0,0,0,0,0,0
	C46.8,40.5,46.9,40.1,47.3,39.9C47.3,39.9,47.3,39.9,47.3,39.9z M48.3,38.7c0,0.1-0.1,0.1-0.2,0.1c-0.1,0-0.2,0-0.2,0l0,0
	c-0.2-0.1-0.5-0.2-0.8-0.4c-0.1-0.1-0.1-0.1-0.1-0.2c0-0.1,0-0.1,0-0.2c0-0.2,0.1-0.3,0.2-0.5c0.1-0.2,0.2-0.3,0.3-0.3
	c0.1,0,0.1,0,0.2,0c0,0,0.1,0,0.1,0l0,0c0,0,0,0,0.1,0c0.1,0,0.3,0.1,0.5,0.2l0,0c0,0.1,0,0.1-0.1,0.2
	C48.1,38.1,48.2,38.5,48.3,38.7z M49.5,40.4c-0.1,0.1-0.2,0.2-0.3,0.4c-0.2,0.1-0.4,0.2-0.6,0.1c-0.1,0-0.3-0.1-0.5-0.3
	c-0.2-0.2-0.3-0.4-0.4-0.5c0-0.1,0-0.3,0-0.4c0-0.1,0.1-0.1,0.1-0.2c0,0,0-0.1,0.1-0.1c0,0,0.1-0.1,0.1-0.1c0.1,0,0.1-0.1,0.2-0.1
	c0.1,0,0.2-0.1,0.2,0C48.7,39.7,49.1,40.1,49.5,40.4z M48.5,34.9c0.1,0,0.2,0.1,0.3,0.2c0.1,0.1,0.3,0.4,0.4,0.6
	c0,0.1-0.1,0.2-0.1,0.3c0,0.1-0.1,0.3-0.1,0.4c-0.1,0.1-0.2,0.3-0.3,0.4c0,0.1-0.1,0.1-0.1,0.2c-0.1,0-0.2,0-0.3,0
	c-0.1,0-0.2-0.1-0.3-0.1c-0.2-0.1-0.3-0.2-0.4-0.2c-0.1-0.1-0.1-0.1,0-0.1c0,0,0-0.1,0-0.1c0-0.1,0-0.1,0.1-0.2c0-0.2,0.1-0.4,0-0.6
	c0-0.1,0-0.2,0-0.2c0-0.1,0.1-0.2,0.2-0.2c0.1-0.1,0.3-0.1,0.4-0.2C48.3,34.9,48.4,34.9,48.5,34.9z M47.4,34.5
	c0.1,0,0.2,0.1,0.3,0.1c-0.1,0.1-0.3,0.1-0.4,0.2c-0.1-0.1-0.3-0.2-0.5-0.2c-0.1,0-0.1,0-0.2,0c-0.1,0-0.1,0-0.1,0
	C46.7,34.5,47,34.4,47.4,34.5z M45.9,37.4c0.2-0.2,0.5-0.3,0.9-0.3c0,0.1-0.1,0.1-0.1,0.2l0,0l0,0c0,0-0.1,0.1-0.1,0.2
	c-0.2,0-0.5,0-0.8,0.1c0,0-0.1,0-0.1,0.1C45.7,37.6,45.8,37.5,45.9,37.4z M23,33.2c0.1-0.3,0.3-0.7,0.7-0.9c0,0.1,0,0.1,0,0.2
	c0,0.1,0.1,0.2,0.1,0.3c-0.3,0.1-0.6,0.3-0.8,0.7c0,0,0,0.1-0.1,0.1C22.9,33.5,22.9,33.3,23,33.2z M34.8,12.8
	c0.2-0.2,0.6-0.1,0.8,0.1l0,0.1c0.3,0.5,0.8,0.9,1.5,1.2c0.7,0.3,1.4,0.4,2.1,0.6c0.7,0.2,1.5,0.3,2.2,0.6c0.7,0.3,1.4,0.8,1.8,1.4
	c-0.5-0.6-1.2-1-1.9-1.2c-0.7-0.2-1.4-0.3-2.2-0.3c-0.7-0.1-1.5-0.1-2.3-0.3c-0.4-0.1-0.8-0.2-1.2-0.5c-0.4-0.2-0.7-0.5-1-0.9l0,0
	C34.5,13.4,34.5,13,34.8,12.8z M30.9,11.5c0-0.1,0-0.2,0.1-0.4c0-0.1,0-0.2,0-0.2c0.1,0.1,0.1,0.2,0.2,0.3c0.1,0.2,0.2,0.5,0.1,0.8
	c-0.1,0.3-0.2,0.5-0.6,0.8c0-0.2-0.1-0.4-0.2-0.6C30.5,12.1,30.8,11.9,30.9,11.5z M27.1,8.6c0.2,0.1,0.5,0.2,0.7,0.4
	c0.2,0.2,0.3,0.6,0.2,1.1c-0.1-0.1-0.2-0.2-0.4-0.3c0,0-0.1,0-0.1,0c0-0.2,0-0.7-0.3-1.1C27,8.6,27,8.6,26.9,8.5
	C27,8.5,27,8.6,27.1,8.6z M26.2,10.5c0.2-0.2,0.6-0.2,0.9-0.2c0.1,0,0.2,0,0.2,0c0.2,0,0.2,0.1,0.3,0.2c0,0.1,0,0.3,0,0.4
	c0,0.1-0.1,0.2-0.1,0.3c0,0.1-0.2,0.3-0.3,0.5c-0.1,0.2-0.2,0.3-0.3,0.5c-0.1,0-0.1-0.1-0.2-0.1c-0.2,0-0.3,0-0.5,0c0,0,0,0,0,0
	c0,0-0.1,0-0.1,0c0,0,0-0.5,0-0.6c0-0.2,0-0.4,0-0.5C26,10.8,26.1,10.6,26.2,10.5z M25.1,10.8c0.1,0,0.1,0.1,0.2,0.1l0,0.1l0,0l0,0
	l0,0l0.3,1.2c-0.3,0.2-0.6,0.4-0.8,0.7c-0.3-0.3-0.7-0.7-0.9-0.9c-0.1-0.2-0.2-0.3-0.1-0.4c0-0.1,0-0.1,0.1-0.1l0,0l0,0l0,0l0,0
	c0,0,0,0,0.1-0.1c0.1-0.1,0.4-0.4,0.8-0.6C24.9,10.8,25,10.8,25.1,10.8z M23.2,9.9c0.2-0.1,0.5-0.2,0.8-0.1c0.2,0.1,0.5,0.2,0.8,0.6
	c-0.1,0-0.1,0-0.2,0.1c-0.1,0.1-0.3,0.1-0.4,0.2c-0.1-0.1-0.3-0.4-0.8-0.5c-0.1,0-0.2,0-0.4-0.1c-0.1,0-0.2,0-0.2,0
	C23,10,23.1,9.9,23.2,9.9z M21.8,12.7c0.2-0.2,0.5-0.3,1-0.2c0.2,0,0.3,0.1,0.5,0.2c0,0,0,0,0,0c0,0-0.2,0.2-0.4,0.4
	c-0.1-0.1-0.2-0.1-0.3-0.2c-0.2-0.1-0.5-0.1-0.9,0c-0.1,0-0.1,0-0.2,0.1C21.5,13,21.6,12.8,21.8,12.7z M21.8,30.3
	c-0.3,0-0.7,0.2-1,0.5c0,0-0.1,0.1-0.1,0.1c0,0,0,0,0,0c0.1-0.2,0.1-0.4,0.3-0.7c0.2-0.2,0.4-0.4,0.8-0.5
	C21.8,30,21.8,30.2,21.8,30.3z M22.9,27.3c-0.1-0.1-0.3-0.1-0.4-0.2c-0.2,0-0.4-0.1-0.6,0c0,0-0.1,0-0.1,0c0.1-0.1,0.2-0.1,0.3-0.2
	c0.3-0.1,0.6-0.2,1-0.1c0.1,0,0.2,0.1,0.4,0.2C23.2,27,23,27.2,22.9,27.3z M24.3,15.1c-0.3-0.2-0.6-0.4-0.9-0.6
	c-0.2-0.1-0.3-0.2-0.3-0.3c-0.1-0.1-0.1-0.2,0-0.3c0.1-0.3,0.4-0.6,0.6-0.7c0.2-0.1,0.4-0.1,0.5,0c0.1,0,0.4,0.3,0.4,0.4
	c0,0,0,0.1-0.1,0.1c0,0.1,0,0.1-0.1,0.2C24.3,14.3,24.2,14.7,24.3,15.1z M26.3,27.7L26.3,27.7L26.3,27.7L26.3,27.7
	c0,0.1-0.2,0.3-0.3,0.7c0,0.1,0,0.2,0,0.3c-0.2-0.1-0.4-0.2-0.6-0.4c-0.4-0.3-0.7-0.8-0.8-1.2c0-0.1-0.1-0.1-0.1-0.2
	c0.2-0.1,0.5-0.2,0.6-0.2c0.1,0,0.2,0,0.2-0.1c0.1,0,0.1,0,0.1,0c0.1,0,0.2,0,0.2,0c0,0,0,0,0.1,0l0,0c0,0,0.1,0.1,0.2,0.2
	c0.1,0.1,0.2,0.3,0.3,0.5C26.3,27.5,26.3,27.6,26.3,27.7z M26.4,26.9c-0.2-0.3-0.4-0.5-0.4-0.5l0,0l0,0l0,0l0,0c0,0,0,0-0.1,0
	c0-0.2,0-0.7-0.3-1.2c0,0-0.1-0.1-0.1-0.1c0.2,0.1,0.4,0.2,0.6,0.4C26.4,25.7,26.6,26.2,26.4,26.9z M26.4,18.6
	c-0.2,0-0.4-0.3-0.8-0.8c-0.5-0.7-1.1-2.4-0.7-3.7c0.2-0.7,0.6-1.3,1.4-1.5c0.1,0,0.3,0,0.3,0c0,0,0.1,0,0.1,0l0,0.1
	c0,0.1,0,0.3,0,0.4c0,1.1,0.5,4.1,0.5,4.3l0,0c0,0.1,0,0.4,0,0.7c0,0.1-0.1,0.3-0.2,0.3c-0.1,0.1-0.2,0.2-0.3,0.2
	C26.6,18.6,26.5,18.6,26.4,18.6z M32.4,27.5c-0.7-0.4-1.3-1.3-1.8-2.2c-0.2-0.5-0.4-1-0.6-1.3c-0.1-0.2-0.1-0.3-0.2-0.4
	c0-0.1-0.1-0.2-0.1-0.2l0,0l0,0c0,0,0-0.1-0.1-0.1c0,0,0-0.1-0.1-0.1c0,0-0.1-0.1-0.1-0.1l0,0l0,0l0,0c-0.1,0-0.1,0-0.1,0.1
	c0,0,0,0.1,0,0.1c0,0,0,0,0,0.1c0,0.1-0.1,0.3-0.1,0.6c0,0.1,0,0.1-0.1,0.2c-0.5-0.4-0.8-1-1-1.6C28.1,22.2,28,22,28,21.8
	c0-0.1,0-0.2,0-0.2c0-0.1,0-0.1,0-0.1l0,0c0-0.3,0-0.5,0-0.6c0-0.1-0.1-0.2-0.2-0.2c-0.1,0-0.3,0-0.3,0.2c0,0.1-0.1,0.4-0.2,0.5l0,0
	c0,0,0,0.1,0,0.1c0,0.1-0.1,0.2-0.1,0.3l0,0c0,0,0,0-0.1-0.1c0-0.1-0.1-0.1-0.1-0.2c-0.1-0.2-0.2-0.5-0.3-0.9
	c-0.1-0.3-0.2-0.6-0.2-0.6c-0.1-0.2,0-0.4,0-0.5c0-0.1,0.1-0.2,0.2-0.3c0,0,0.1-0.1,0.1-0.1l0,0l0,0l0,0l0,0l0,0
	c0,0,0.2-0.2,0.4-0.4c0.2-0.2,0.3-0.4,0.3-0.6c0.1-0.4,0-0.9,0-0.9c0,0,0-0.2-0.1-0.5c-0.1-0.9-0.4-2.9-0.4-3.7c0-0.1,0-0.3,0-0.4
	c0.2-0.8,1.2-1.3,1.5-1.4c0.2-0.1,0.2-0.1,0.3-0.1l0,0l0,0l0,0c0,0,0.1,0.1,0.2,0.3c0.2,0.2,0.4,0.5,0.7,0.9
	c0.3,0.3,0.3,0.5,0.3,0.6c0,0.1-0.1,0.1-0.1,0.1l-0.1,0l0,0l0,0l0,0l0,0c-0.5,0.1-0.9,0.2-1.2,0.4c-0.3,0.2-0.4,0.5-0.5,0.8
	c-0.1,0.5,0,1.1,0.3,1.5c1.9,3.1,4.3,4.6,6.1,5.3l0.3,0.2c0,0,0.1,0,0.1,0.1c0.1,0,0.2,0.1,0.3,0.2c-0.4,0.1-0.7,0.3-1,0.5
	c-1.1,0.7-1.8,1.7-2.3,3.1l-0.4,1.4l1.3-0.6c0.1,0,0.2-0.1,0.3-0.1c-0.3,0.3-0.5,0.7-0.6,1.2C32.5,27,32.4,27.3,32.4,27.5z
	 M50.6,14.8c-0.2,0.8-0.9,1.4-1.4,1.7l0,0l0,0.1c0.7,2,0.5,3.7,0.4,4.2c-0.1-0.2-0.2-0.6-0.2-0.6c0,0,0-0.1-0.1-0.1
	c0-0.1-0.1-0.2-0.2-0.2c0,0-0.1,0-0.1,0c-0.1,0-0.1,0-0.2,0c-0.1,0-0.1,0.1-0.1,0.2c0,0.1,0,0.1,0,0.2c0.1,1.6-0.2,3.2-0.4,4.1
	c0,0,0,0.1,0,0.1c-0.1-0.4-0.3-0.9-0.3-1c-0.1-0.2-0.1-0.3-0.2-0.3c-0.1,0-0.1,0-0.2,0c0,0-0.1,0.1-0.1,0.1c0,0,0,0.1,0,0.1
	c0.1,0.8,0,1.5-0.2,2.1c-0.2,0.8-0.6,1.5-0.9,1.9c-0.1,0.2-0.3,0.4-0.4,0.5c0,0-0.1,0.1-0.1,0.1c0-0.1-0.1-0.2-0.1-0.3
	c-0.1-0.2-0.1-0.5-0.2-0.8c0-0.1,0-0.2-0.1-0.3c0-0.1-0.1-0.1-0.1-0.1c-0.1,0-0.1,0-0.2,0.1c0,0-0.1,0.1-0.1,0.2c0,0,0,0.1,0,0.1
	c0,0.2-0.1,0.3-0.1,0.5c-0.4,1.4-1.2,2.2-1.9,2.7c-0.4,0.2-0.7,0.4-0.9,0.5c-0.1,0-0.2,0.1-0.3,0.1c0.1-0.4,0.4-1.5,0.5-2
	c0-0.1,0-0.2,0-0.2c0-0.1-0.1-0.1-0.1-0.2c0,0-0.1,0-0.1,0c0,0-0.1,0.1-0.1,0.1c-0.6,0.8-1.2,1.2-1.6,1.4c-0.4,0.2-0.7,0.2-0.9,0.1
	c-0.1,0-0.2-0.1-0.2-0.1c0.1-0.1,0.2-0.2,0.3-0.3c0.2-0.2,0.4-0.5,0.5-0.8c0.1-0.2,0.1-0.4-0.1-0.6c-0.1-0.2-0.4-0.4-0.8-0.5
	c-0.1,0-0.3-0.1-0.4-0.1c-1-0.1-2.4,0.1-3.7,0.4c-1,0.2-1.9,0.5-2.2,0.6c-0.1-0.5-0.1-1,0-1.3c0.1-0.5,0.4-0.9,0.7-1.2
	c0.1-0.1,0.2-0.2,0.3-0.3c0,0,0.1-0.1,0.1-0.1l0,0c0,0,0,0,0.1-0.1c0,0,0.1-0.1,0.1-0.2c0,0,0-0.1,0-0.2c0-0.1-0.1-0.1-0.2-0.1
	c-0.5-0.1-0.9,0-1.2,0.1c-0.2,0.1-0.4,0.2-0.5,0.2c0.5-1.5,1.3-2.3,2-2.7c0.8-0.5,1.4-0.6,1.6-0.6c0.1,0,0.2,0,0.3-0.1
	c0.1,0,0.1-0.1,0.1-0.1c0,0,0-0.1,0-0.1c0-0.1,0-0.1-0.1-0.1c-0.1-0.1-0.2-0.1-0.2-0.1c0,0-0.3-0.2-0.6-0.3
	c-0.2-0.1-0.3-0.2-0.4-0.2c0,0-0.1,0-0.1-0.1c1.3-1,2.8-0.8,3.5-0.6c0.2,0,0.3,0.1,0.4,0.1c0,0,0.1,0,0.1,0c0,0,0,0,0,0
	c0.1,0,0.1,0,0.1,0.1c0.1,0,0.2,0,0.3,0c0.1,0,0.1-0.1,0.2-0.2c0-0.1,0-0.2,0-0.2c0,0-0.1-0.1-0.1-0.1c0,0,0,0,0,0
	c0,0-0.2-0.2-0.5-0.5c-0.1-0.1-0.2-0.2-0.2-0.2c0-0.1,0-0.1,0-0.1l0,0c0.1,0,0.2,0.1,0.4,0.1c0.2,0.1,0.5,0.2,0.6,0.2
	c0.3,0.2,0.6,0.4,0.9,0.4c0.5,0.1,0.9,0,1.2-0.2c0.3-0.2,0.5-0.4,0.6-0.5c0.1-0.1,0.2-0.2,0.2-0.3c0.1-0.2,0-0.4-0.2-0.5
	c-0.1-0.1-0.3-0.1-0.5-0.2C42,18,41.7,18,41.5,18.2c-0.2,0.1-0.3,0.1-0.4,0.1c0,0-0.1,0-0.1-0.1l0,0c0,0-0.4-0.6-0.4-0.6
	c-0.2-0.1-0.3-0.2-0.3-0.2c-0.1-0.1-0.1-0.1-0.1-0.1l0,0c0,0,0.1,0,0.1,0c0.3-0.1,0.5-0.1,0.7,0c0.2,0.1,0.5,0.2,1.1,0.4
	c0.1,0,0.2,0,0.3,0.1c0.4,0.1,0.7,0,0.9-0.1c0.2-0.1,0.3-0.4,0.4-0.6c0.1-0.3,0.1-0.5,0.1-0.5c0,0-0.1-0.9-0.4-2
	c-0.1-0.3-0.3-0.5-0.5-0.5c-0.3-0.1-0.7,0-0.9,0.1c-0.3,0.1-0.5,0.2-0.5,0.2c-0.2,0.1-0.5,0.1-0.6,0.1c-0.2-0.1-0.4-0.2-0.5-0.4
	c-0.1-0.2-0.2-0.4-0.1-0.6l0,0c0-0.1,0.2-0.3,0.3-0.4c0.2-0.1,0.4-0.3,0.4-0.5c0-0.1-0.2-0.3-0.1-0.4c0-0.1,0.1-0.1,0.2-0.2
	c0.1,0,0.2-0.1,0.3-0.1c0.4,0,1.6-0.1,1.6-0.1c0.1-0.1,0.2-0.2,0.4-0.2c0.2-0.1,0.4-0.1,0.9-0.1c1.2,0.1,4.4,0.7,4.7,0.8
	c0.1,0,0.2,0.1,0.3,0.2c0.2,0.2,0.3,0.5,0.4,0.7c0.1,0.1,0.1,0.2,0.1,0.3c0,0.1,0,0.1,0,0.1l0,0.1l0.1,0c0,0,0.1,0,0.1,0
	c0.1,0,0.2,0,0.3,0c0.1,0,0.3,0.1,0.4,0.2c0.1,0.1,0.2,0.3,0.2,0.6C50.6,14.5,50.6,14.7,50.6,14.8z"/>
<path class="st0" d="M54.9,19.3c-0.5,0.1-0.9,0.4-1.1,1c-0.1,0.3,0,0.6,0.1,0.9c0.2,0.4,0.6,0.7,1.1,1c0.5,0.3,1.2,0.5,1.8,0.7
	c0.5,0.1,1.2,0.3,2,0.5v-2.6c-0.8-0.6-1.7-1.1-2.5-1.3C55.9,19.3,55.4,19.2,54.9,19.3z"/>
<path class="st2" d="M46.7,40.8C46.7,40.8,46.7,40.8,46.7,40.8C46.8,40.8,46.8,40.7,46.7,40.8c0.2-0.2,0.4-0.4,0.5-0.4
	c0-0.1,0-0.3,0-0.4c0,0,0-0.1,0-0.1C46.9,40.1,46.8,40.5,46.7,40.8z"/>
<path class="st2" d="M54.5,24.7c-2.5-0.3-4.8-0.3-5.6-0.3l0,0.1l-0.6,2.2L48,25.4c0,0,0,0.1,0,0.1c-0.2,0.9-0.7,1.6-1,2.1
	c-0.2,0.3-0.3,0.5-0.4,0.6c0,0-0.1,0.1-0.1,0.1l-0.8,0.8l-0.3-0.9c-0.4,0.9-1,1.6-1.8,2.2c-0.2,0.1-0.6,0.3-1,0.5c0,0-0.1,0-0.1,0
	c-0.1,0.1-0.2,0.1-0.3,0.1l-1.1,0.3l0.4-1.6c-0.3,0.2-0.5,0.4-0.7,0.5c-0.5,0.2-0.9,0.3-1.4,0.2c-0.1,0-0.3-0.1-0.4-0.2l-0.7-0.4
	l0.6-0.6c0,0,0.1-0.1,0.3-0.3c0.2-0.3,0.3-0.5,0.4-0.6c0,0,0-0.1,0-0.1c0-0.1-0.2-0.1-0.4-0.2c-0.1,0-0.2,0-0.3-0.1
	c-0.5-0.1-1.5-0.1-3.4,0.4c-1,0.2-2,0.5-3,0.8c-0.6,0.2-1.3,0.4-1.9,0.5c-0.9,0.2-1.9,0.4-2.8,0.3c-0.3,0-0.5-0.1-0.8-0.1
	c-0.4-0.1-0.7-0.3-0.9-0.6c-0.4-0.1-0.7-0.3-1-0.6c-0.3-0.3-0.6-0.6-0.7-0.9c-0.1-0.2-0.2-0.4-0.3-0.6c-0.5,0.3-1.1,0.7-1.3,1.3
	c-0.1,0.2-0.1,0.3-0.1,0.5c0,0.1,0,0.2-0.1,0.3c0.1,0,0.2,0,0.2,0.1c1.8,0.5,2.8,0.5,2.9,0.5l0.1,0c0.1,0,0.2,0.1,0.2,0.2l0,0.1
	c0,0.1-0.1,0.2-0.2,0.2c0,0-1.1,0-3-0.5c-0.1,0-0.1,0-0.2-0.1c-0.1,0.5-0.1,1,0,1.4c0.2,0.5,0.5,0.7,0.7,0.8c0,0,0.1,0,0.1,0
	c1.7-0.6,2.7-0.7,2.8-0.7c0,0,0.1,0,0.1,0c0.1,0,0.2,0.1,0.2,0.2c0,0,0,0.1,0,0.1c0,0.1-0.1,0.2-0.2,0.2l0,0c0,0-0.1,0-0.2,0
	c-0.2,0-0.4,0.1-0.8,0.2c-0.2,0-0.5,0.1-0.7,0.2c0,0,0,0,0,0.1c0,0,0,0.1,0,0.2c0.1,0.4,0.2,0.8,0.3,1.1c0.1,0.2,0.2,0.4,0.5,0.5
	c0.2,0.1,0.6,0,1.1-0.4c0.3-0.2,0.6-0.4,1.2-0.2l1.3,0.3l0,0c0,0,0,0,0.1,0c0.1,0,0.1,0,0.2,0c0.2,0,0.4-0.1,0.6-0.2
	c0.1-0.1,0.2-0.2,0.4-0.2c0.1,0,0.2,0,0.4,0c0.2,0.1,0.5,0.2,0.8,0.4c0.5,0.3,0.9,0.5,1.2,0.6c0.1,0,0.2,0,0.2,0
	c0,0-0.1-0.1-0.1-0.2c-0.1-0.1-0.2-0.3-0.3-0.5c0-0.1-0.1-0.2,0-0.3c0-0.1,0-0.1,0.1-0.1c0.1-0.1,0.2-0.1,0.3-0.1
	c0.1,0,0.1,0.1,0.2,0.1c0,0.1,0.1,0.1,0.1,0.1c0.4,0.5,1.4,1.1,2.2,1.3c0.2,0.1,0.5,0.1,0.6,0.1c-0.1-0.1-0.3-0.3-0.4-0.5
	c-0.1-0.1-0.1-0.2-0.1-0.3c0-0.1,0.1-0.1,0.1-0.1c0.1,0,0.2,0,0.3,0c0.2,0.1,0.5,0.2,0.5,0.2c0,0,0,0,0.1,0.1c0.1,0,0.2,0.1,0.4,0.2
	c0.3,0.1,0.7,0.3,1.1,0.4c0.4,0.1,0.9,0.2,1.1,0c-0.3-0.5-0.5-0.9-0.5-0.9c0,0-0.1-0.1,0-0.3c0-0.1,0.1-0.1,0.1-0.2
	c0.1-0.1,0.2-0.1,0.2,0c0.2,0,0.3,0.2,0.3,0.2c0,0,0.1,0,0.2,0.1c0.1,0.1,0.3,0.2,0.4,0.3c0.4,0.2,0.8,0.4,1.3,0.6
	c0.4,0.1,0.8,0.1,1.1,0c-0.3-0.2-0.4-0.4-0.4-0.5c0,0-0.1-0.1,0-0.2c0,0,0-0.1,0.1-0.1c0.1-0.1,0.1-0.1,0.2-0.1c0.1,0,0.1,0,0.2,0
	c0,0,0.1,0,0.1,0c0.1,0.1,0.3,0.1,0.4,0.1c0.8,0.2,1.3,0.1,1.4,0.1l-0.5-1.2c0.1,0,0.3-0.1,0.4-0.1c0.1,0,0.3-0.1,0.4-0.1
	c0.3,0,0.8,0,1.3,0c1.1-0.1,2.6-0.2,4.3-0.6c3.1-0.8,6.2-1.9,9-1.9v-4.5C57.5,25.1,56,24.8,54.5,24.7z"/>
<path class="st2" d="M56.8,22.9c-0.7-0.2-1.3-0.4-1.8-0.7c-0.5-0.3-0.9-0.6-1.1-1c-0.1-0.3-0.2-0.6-0.1-0.9c0.2-0.6,0.6-0.9,1.1-1
	c0.5-0.1,1,0,1.4,0.1c0.8,0.2,1.6,0.7,2.5,1.3v-1.8c-0.1,0-0.2,0-0.3-0.1c-0.1,0-0.2-0.1-0.3-0.1c-0.2-0.1-0.5-0.1-0.7-0.2
	c-1.2-0.3-2.3-0.5-3.1-0.3c-0.9,0.2-1.5,0.6-1.7,1.6c-0.2,0.8,0.1,1.6,0.8,2.3c0.7,0.7,1.9,1.3,3.4,1.7c0,0,0.1,0,0.1,0
	c0.6,0.2,1.2,0.3,1.9,0.4v-0.9C58,23.2,57.3,23,56.8,22.9z"/>
<path class="st2" d="M51.7,35L51.7,35l0,0.2c0.1,0,0.2,0.1,0.3,0.1c0.1,0,0.1,0,0.2,0l0,0l0,0c0,0,0.1,0,0.1,0c0-0.5-0.2-0.8-0.4-1
	c-0.2-0.2-0.5-0.4-0.7-0.4c-0.1,0-0.1,0-0.2,0c0,0,0.1,0.1,0.1,0.1C51.6,34.3,51.7,34.7,51.7,35z"/>
<path class="st2" d="M48.3,39.3c-0.1,0-0.2,0.1-0.2,0.1c0,0-0.1,0.1-0.1,0.1c0,0-0.1,0.1-0.1,0.1c0,0-0.1,0.1-0.1,0.2
	c0,0.1,0,0.2,0,0.4c0,0.1,0.2,0.3,0.4,0.5c0.2,0.1,0.3,0.2,0.5,0.3c0.3,0.1,0.5,0,0.6-0.1c0.1-0.1,0.2-0.3,0.3-0.4
	c-0.4-0.3-0.8-0.7-1-1.2C48.4,39.3,48.3,39.3,48.3,39.3z"/>
<path class="st2" d="M47.5,35.4c0,0.1,0,0.1,0,0.2c0.1,0.3,0.1,0.5,0,0.6c0,0.1-0.1,0.2-0.1,0.2c0,0,0,0,0,0.1c0,0.1,0,0.1,0,0.1
	c0.1,0.1,0.2,0.1,0.4,0.2c0.1,0,0.2,0.1,0.3,0.1c0.1,0,0.3,0,0.3,0c0-0.1,0.1-0.1,0.1-0.2c0.1-0.1,0.2-0.3,0.3-0.4
	C49,36.3,49,36.1,49,36c0-0.1,0.1-0.2,0.1-0.3c-0.1-0.2-0.3-0.5-0.4-0.6c-0.1-0.1-0.1-0.2-0.3-0.2c-0.1,0-0.2,0-0.3,0
	c-0.1,0.1-0.3,0.1-0.4,0.2C47.6,35.2,47.5,35.3,47.5,35.4z"/>
<path class="st2" d="M48.3,37.4L48.3,37.4c-0.2-0.1-0.4-0.1-0.5-0.2c0,0-0.1,0-0.1,0l0,0c0,0-0.1,0-0.1,0c-0.1,0-0.1,0-0.2,0
	c-0.1,0-0.2,0.1-0.3,0.3c-0.1,0.1-0.2,0.3-0.2,0.5c0,0.1,0,0.2,0,0.2c0,0.1,0.1,0.1,0.1,0.2c0.3,0.2,0.6,0.4,0.8,0.4l0,0
	c0.1,0,0.1,0,0.2,0c0.1,0,0.1-0.1,0.2-0.1c-0.1-0.3-0.1-0.7,0-1.1C48.2,37.5,48.3,37.5,48.3,37.4z"/>
<path class="st2" d="M50.1,13.6c-0.1,0-0.2,0-0.3,0c-0.1,0-0.1,0-0.1,0l-0.1,0l0-0.1c0,0,0,0,0-0.1c0-0.1-0.1-0.2-0.1-0.3
	c-0.1-0.2-0.3-0.5-0.4-0.7c-0.1-0.1-0.2-0.2-0.3-0.2c-0.3-0.1-3.5-0.7-4.7-0.8c-0.5,0-0.7,0-0.9,0.1c-0.2,0.1-0.2,0.2-0.4,0.2
	c0,0-1.2,0.1-1.6,0.1c-0.1,0-0.2,0-0.3,0.1c-0.1,0-0.2,0.1-0.2,0.2c0,0.2,0.1,0.3,0.1,0.4c0,0.2-0.2,0.4-0.4,0.5
	c-0.1,0.1-0.3,0.3-0.3,0.4l0,0c0,0.2,0,0.4,0.1,0.6c0.1,0.2,0.3,0.3,0.5,0.4c0.2,0,0.4,0,0.6-0.1c0,0,0.2-0.1,0.5-0.2
	c0.3-0.1,0.6-0.2,0.9-0.1c0.2,0.1,0.4,0.2,0.5,0.5c0.3,1.1,0.4,2,0.4,2c0,0,0,0.2-0.1,0.5c-0.1,0.2-0.2,0.4-0.4,0.6
	c-0.2,0.1-0.5,0.2-0.9,0.1c-0.1,0-0.2-0.1-0.3-0.1c-0.6-0.2-0.9-0.3-1.1-0.4c-0.2-0.1-0.4-0.1-0.7,0c0,0-0.1,0-0.1,0l0,0
	c0,0,0,0,0.1,0.1c0.1,0.1,0.2,0.1,0.3,0.2c0,0,0.4,0.6,0.4,0.6l0,0c0,0,0.1,0,0.1,0.1c0.1,0,0.2,0,0.4-0.1c0.3-0.2,0.6-0.1,0.8-0.1
	c0.2,0.1,0.4,0.1,0.5,0.2c0.2,0.1,0.3,0.3,0.2,0.5c0,0.1-0.1,0.2-0.2,0.3c-0.1,0.1-0.3,0.4-0.6,0.5c-0.3,0.2-0.7,0.3-1.2,0.2
	c-0.3-0.1-0.6-0.2-0.9-0.4c-0.1-0.1-0.4-0.2-0.6-0.2c-0.2-0.1-0.3-0.1-0.4-0.1l0,0c0,0,0,0,0,0.1c0,0.1,0.1,0.1,0.2,0.2
	c0.3,0.3,0.4,0.4,0.5,0.5c0,0,0,0,0,0c0,0,0,0,0.1,0.1c0,0,0.1,0.1,0,0.2c0,0.1-0.1,0.1-0.2,0.2c-0.1,0-0.2,0-0.3,0
	c0,0-0.1,0-0.1-0.1c0,0,0,0,0,0c0,0-0.1,0-0.1,0c-0.1,0-0.2-0.1-0.4-0.1c-0.8-0.2-2.2-0.4-3.5,0.6c0,0,0.1,0,0.1,0.1
	c0.1,0.1,0.3,0.1,0.4,0.2c0.3,0.2,0.6,0.3,0.6,0.3c0,0,0.1,0.1,0.2,0.1c0,0,0.1,0.1,0.1,0.1c0,0,0,0.1,0,0.1c0,0.1-0.1,0.1-0.1,0.1
	c-0.1,0-0.2,0.1-0.3,0.1c-0.2,0-0.9,0.1-1.6,0.6c-0.7,0.5-1.5,1.3-2,2.7c0.1-0.1,0.3-0.1,0.5-0.2c0.3-0.1,0.7-0.2,1.2-0.1
	c0.1,0,0.1,0.1,0.2,0.1c0,0,0,0.1,0,0.2c0,0.1-0.1,0.1-0.1,0.2c0,0-0.1,0.1-0.1,0.1l0,0c0,0-0.1,0-0.1,0.1c-0.1,0.1-0.2,0.2-0.3,0.3
	c-0.2,0.3-0.5,0.7-0.7,1.2c-0.1,0.4-0.1,0.8,0,1.3c0.3-0.1,1.1-0.3,2.2-0.6c1.2-0.3,2.7-0.5,3.7-0.4c0.1,0,0.3,0,0.4,0.1
	c0.4,0.1,0.7,0.3,0.8,0.5c0.1,0.2,0.1,0.4,0.1,0.6c-0.1,0.3-0.3,0.6-0.5,0.8c-0.1,0.1-0.2,0.3-0.3,0.3c0.1,0,0.1,0.1,0.2,0.1
	c0.2,0.1,0.5,0.1,0.9-0.1c0.4-0.2,0.9-0.6,1.6-1.4c0,0,0.1-0.1,0.1-0.1c0,0,0.1,0,0.1,0c0.1,0,0.1,0.1,0.1,0.2c0,0.1,0,0.2,0,0.2
	c-0.1,0.4-0.4,1.6-0.5,2c0.1,0,0.2,0,0.3-0.1c0.2-0.1,0.6-0.2,0.9-0.5c0.7-0.5,1.5-1.3,1.9-2.7c0-0.1,0.1-0.3,0.1-0.5
	c0,0,0-0.1,0-0.1c0-0.1,0.1-0.2,0.1-0.2c0,0,0.1-0.1,0.2-0.1c0.1,0,0.1,0.1,0.1,0.1c0,0.1,0.1,0.2,0.1,0.3c0,0.2,0.1,0.5,0.2,0.8
	c0,0.1,0.1,0.2,0.1,0.3c0,0,0-0.1,0.1-0.1c0.1-0.1,0.2-0.3,0.4-0.5c0.3-0.4,0.7-1.1,0.9-1.9c0.2-0.6,0.2-1.3,0.2-2.1
	c0,0,0-0.1,0-0.1c0-0.1,0-0.1,0.1-0.1c0,0,0.1-0.1,0.2,0c0.1,0,0.2,0.1,0.2,0.3c0,0,0.2,0.6,0.3,1c0,0,0,0,0-0.1
	c0.2-0.9,0.6-2.5,0.4-4.1c0-0.1,0-0.2,0-0.2c0-0.1,0.1-0.1,0.1-0.2c0.1,0,0.1,0,0.2,0c0,0,0.1,0,0.1,0c0.1,0,0.1,0.1,0.2,0.2
	c0,0.1,0.1,0.1,0.1,0.1c0,0,0.1,0.4,0.2,0.6c0.1-0.5,0.3-2.2-0.4-4.2l0-0.1l0,0c0.4-0.3,1.2-0.9,1.4-1.7c0-0.1,0.1-0.3,0.1-0.4
	c0-0.3-0.1-0.5-0.2-0.6C50.3,13.7,50.2,13.6,50.1,13.6z M44.4,12.8C44.2,12.9,44,13,44,13L44,13c0,0,0,0,0,0
	c-0.1-0.1-0.2-0.3-0.4-0.4c0,0-0.3-0.1-0.2-0.2l0,0c0,0,0.1,0,0.1,0c0.1,0,0.2,0,0.3,0c0.1,0,1.1,0,1,0.2
	C44.9,12.6,44.5,12.7,44.4,12.8z"/>
<path class="st2" d="M25.5,25c0,0,0.1,0.1,0.1,0.1c0.4,0.5,0.4,0.9,0.3,1.2c0,0,0.1,0,0.1,0l0,0l0,0l0,0l0,0c0,0,0.2,0.2,0.4,0.5
	c0.1-0.7-0.1-1.2-0.3-1.5C25.9,25.2,25.7,25.1,25.5,25z"/>
<path class="st2" d="M25.9,26.9c-0.1-0.1-0.1-0.2-0.2-0.2l0,0c0,0,0,0-0.1,0c-0.1,0-0.1,0-0.2,0c0,0-0.1,0-0.1,0
	c-0.1,0-0.1,0-0.2,0.1c-0.2,0-0.4,0.1-0.6,0.2c0,0.1,0,0.1,0.1,0.2c0.2,0.4,0.4,0.8,0.8,1.2c0.2,0.2,0.4,0.3,0.6,0.4
	c0-0.1,0-0.2,0-0.3c0.1-0.4,0.3-0.6,0.3-0.6l0,0l0,0l0,0c0-0.1,0-0.2-0.1-0.4C26.1,27.2,25.9,27,25.9,26.9z"/>
<path class="st2" d="M27,18.3c0.1-0.1,0.2-0.2,0.2-0.3c0.1-0.3,0-0.6,0-0.7l0,0c0-0.1-0.5-3.1-0.5-4.3c0-0.2,0-0.3,0-0.4l0-0.1
	c0,0,0,0-0.1,0c-0.1,0-0.2,0-0.3,0c-0.8,0.2-1.3,0.8-1.4,1.5c-0.3,1.3,0.2,3,0.7,3.7c0.4,0.6,0.7,0.8,0.8,0.8c0.1,0,0.2,0,0.3-0.1
	C26.8,18.5,26.9,18.4,27,18.3z"/>
<path class="st2" d="M56.7,33.5c0.1,0,0.1-0.1,0.2-0.1c0.2-0.1,0.5-0.2,0.7-0.2c0.1,0,0.1,0,0.1,0c0.1,0,0.2,0.1,0.2,0.2
	c0,0.1,0,0.2,0,0.2c0,0.1-0.1,0.2-0.1,0.2c0,0,0,0.1-0.1,0.2c-0.1,0.1-0.2,0.3-0.3,0.4c-0.2,0.3-0.3,0.7-0.5,1.1
	c0.3-0.3,0.7-0.5,0.7-0.5c0,0,0,0,0.1,0c0,0,0.1,0,0.2,0c0,0,0.1,0,0.1,0.1c0,0,0,0.1,0,0.1c0,0,0,0.1,0,0.2
	c-0.1,0.5-0.4,0.9-0.2,1.5c0.1,0.4,0.2,0.8-0.2,1.2c-0.3,0.3-0.7,0.5-1.1,0.7c-0.2,0.1-0.5,0.1-0.8,0.1c-0.3,0-0.7-0.2-1.1-0.2
	c-0.5,0-1,0.3-1.5,0.3c-0.1,0-0.3,0-0.5-0.1c-0.5-0.1-1.2-0.5-1.4-1c-0.1-0.3-0.2-0.5-0.1-0.8c0.2-0.6,0.8-1,0.8-1l0,0
	c0,0,0.1-0.1,0.1-0.1l0,0c0,0,0,0-0.1-0.1c-0.1,0-0.1,0-0.2-0.1c-0.5-0.1-1.2-0.3-1.2-0.4c0,0-0.3-0.1-0.6,0l0,0c0,0-0.1,0-0.1,0.1
	c-0.1,0.1-0.2,0.2-0.3,0.3c-0.1,0.2-0.2,0.5-0.3,0.9c-0.2,0.3-0.5,0.7-0.6,1c0,0.1,0,0.1-0.1,0.2c-0.1,0.4,0,0.8,0.1,1
	c0.3,0.8,1.1,1.4,1.8,1.9c0.8,0.5,1.5,0.8,1.8,0.9c0.1,0,0.1,0,0.1,0c0.1,0,1.5,0,2,0c0.5,0,1.6,0.2,2.1,0.3c0,0-0.6-0.5-0.6-0.5
	c0,0,0,0-0.1-0.1c0-0.1-0.1-0.1,0-0.2c0,0,0-0.1,0.1-0.1c0-0.1,0.1-0.1,0.2-0.1c0.1,0,0.1,0,0.2,0c0.1,0,0.1,0,0.1,0.1
	c0,0,0.2,0.1,0.4,0.2c0.3,0.1,0.6,0.2,1,0.3c0.3,0.1,0.6,0.1,0.8,0.2c0.1,0,0.1,0,0.2,0v-9.9C57.7,32.2,57,33.1,56.7,33.5z"/>
<path class="st2" d="M32.8,25.8l-1.3,0.6l0.4-1.4c0.4-1.4,1.2-2.4,2.3-3.1c0.3-0.2,0.7-0.4,1-0.5c-0.1-0.1-0.2-0.1-0.3-0.2
	c-0.1,0-0.1-0.1-0.1-0.1L34.5,21c-1.8-0.7-4.2-2.3-6.1-5.3c-0.2-0.3-0.4-0.9-0.3-1.5c0.1-0.3,0.2-0.5,0.5-0.8
	c0.3-0.2,0.7-0.4,1.2-0.4l0,0l0,0l0,0l0,0l0.1,0c0.1,0,0.1,0,0.1-0.1c0-0.1,0-0.3-0.3-0.6c-0.3-0.4-0.6-0.7-0.7-0.9
	c-0.2-0.2-0.2-0.3-0.2-0.3l0,0l0,0l0,0c0,0-0.1,0-0.3,0.1c-0.3,0.2-1.2,0.6-1.5,1.4c0,0.1,0,0.2,0,0.4c0,0.8,0.3,2.8,0.4,3.7
	c0,0.3,0.1,0.5,0.1,0.5c0,0,0.1,0.4,0,0.9c-0.1,0.2-0.2,0.4-0.3,0.6C27,18.9,26.8,19,26.8,19l0,0l0,0l0,0l0,0l0,0c0,0,0,0-0.1,0.1
	c-0.1,0.1-0.1,0.2-0.2,0.3c0,0.1,0,0.3,0,0.5c0,0,0.1,0.3,0.2,0.6c0.1,0.3,0.2,0.7,0.3,0.9c0,0.1,0.1,0.1,0.1,0.2
	c0,0.1,0,0.1,0.1,0.1l0,0c0,0,0.1-0.1,0.1-0.3c0,0,0,0,0-0.1l0,0c0-0.2,0.1-0.4,0.2-0.5c0-0.1,0.2-0.2,0.3-0.2
	c0.1,0,0.2,0.1,0.2,0.2c0,0.1,0,0.4,0,0.6l0,0c0,0,0,0,0,0.1c0,0.1,0,0.1,0,0.2c0,0.2,0.1,0.4,0.2,0.7c0.2,0.5,0.5,1.2,1,1.6
	c0-0.1,0-0.1,0.1-0.2c0.1-0.3,0.1-0.5,0.1-0.6c0,0,0,0,0-0.1c0,0,0-0.1,0-0.1c0,0,0.1-0.1,0.1-0.1l0,0l0,0l0,0c0,0,0.1,0,0.1,0.1
	c0,0,0.1,0.1,0.1,0.1c0,0,0,0.1,0.1,0.1l0,0l0,0c0,0,0,0.1,0.1,0.2c0,0.1,0.1,0.2,0.2,0.4c0.1,0.4,0.3,0.8,0.6,1.3
	c0.5,0.9,1.1,1.9,1.8,2.2c0-0.2,0-0.4,0.1-0.6c0.1-0.4,0.3-0.8,0.6-1.2C33,25.7,32.9,25.7,32.8,25.8z"/>
<path class="st2" d="M31.2,12c0.1-0.3,0-0.6-0.1-0.8c-0.1-0.1-0.1-0.2-0.2-0.3c0,0.1,0,0.1,0,0.2c0,0.1,0,0.3-0.1,0.4
	c-0.1,0.4-0.4,0.7-0.5,0.8c0.1,0.1,0.2,0.3,0.2,0.6C31,12.5,31.1,12.2,31.2,12z"/>
<path class="st2" d="M23.5,10.1c0.4,0.1,0.7,0.4,0.8,0.5c0.1-0.1,0.2-0.1,0.4-0.2c0.1,0,0.1,0,0.2-0.1C24.5,10,24.2,9.9,24,9.8
	c-0.3-0.1-0.6,0-0.8,0.1c-0.1,0.1-0.2,0.1-0.3,0.2c0.1,0,0.1,0,0.2,0C23.3,10.1,23.4,10.1,23.5,10.1z"/>
<path class="st2" d="M23.9,11.5L23.9,11.5L23.9,11.5L23.9,11.5L23.9,11.5c-0.1,0.1-0.1,0.1-0.1,0.2c0,0.1,0,0.2,0.1,0.4
	c0.2,0.2,0.6,0.6,0.9,0.9c0.2-0.3,0.5-0.6,0.8-0.7l-0.3-1.2l0,0l0,0l0,0l0-0.1c0-0.1-0.1-0.1-0.2-0.1c-0.1,0-0.2,0-0.3,0
	C24.4,11,24.1,11.3,23.9,11.5C23.9,11.5,23.9,11.5,23.9,11.5z"/>
<path class="st2" d="M23.8,32.8c0-0.1-0.1-0.2-0.1-0.3c0-0.1,0-0.1,0-0.2c-0.4,0.2-0.6,0.6-0.7,0.9c0,0.2-0.1,0.3-0.1,0.5
	c0,0,0-0.1,0.1-0.1C23.2,33.1,23.6,32.9,23.8,32.8z"/>
<path class="st2" d="M34.7,13.6c0.3,0.4,0.6,0.7,1,0.9c0.4,0.2,0.8,0.4,1.2,0.5c0.8,0.2,1.5,0.2,2.3,0.3c0.7,0.1,1.5,0.1,2.2,0.3
	c0.7,0.2,1.4,0.5,1.9,1.2c-0.4-0.7-1.1-1.1-1.8-1.4c-0.7-0.3-1.5-0.5-2.2-0.6c-0.7-0.2-1.5-0.3-2.1-0.6c-0.7-0.3-1.2-0.7-1.5-1.2
	l0-0.1c-0.2-0.3-0.5-0.3-0.8-0.1C34.5,13,34.5,13.4,34.7,13.6L34.7,13.6z"/>
<path class="st2" d="M27.4,9.8c0,0,0.1,0,0.1,0c0.2,0.1,0.3,0.2,0.4,0.3c0.1-0.5,0-0.9-0.2-1.1c-0.2-0.3-0.5-0.4-0.7-0.4
	c-0.1,0-0.1,0-0.1,0c0,0,0.1,0.1,0.1,0.2C27.4,9.2,27.4,9.6,27.4,9.8z"/>
<path class="st2" d="M26.1,12.1C26.1,12.1,26.1,12.1,26.1,12.1C26.1,12.1,26.2,12.1,26.1,12.1c0.3-0.1,0.5-0.1,0.6,0
	c0.1,0,0.2,0.1,0.2,0.1c0.1-0.1,0.2-0.3,0.3-0.5c0.1-0.2,0.3-0.4,0.3-0.5c0-0.1,0.1-0.2,0.1-0.3c0-0.1,0.1-0.3,0-0.4
	c0-0.1-0.1-0.2-0.3-0.2c-0.1,0-0.1,0-0.2,0c-0.3,0-0.7,0-0.9,0.2C26.1,10.6,26,10.8,26,11c0,0.2,0,0.4,0,0.5
	C26,11.6,26.1,12.1,26.1,12.1z"/>
<path class="st2" d="M24.5,13.6c0-0.1-0.4-0.3-0.4-0.4c-0.2-0.1-0.4-0.1-0.5,0c-0.2,0.1-0.5,0.4-0.6,0.7c0,0.1,0,0.2,0,0.3
	c0,0.1,0.1,0.2,0.3,0.3c0.3,0.2,0.6,0.4,0.9,0.6c0-0.4,0-0.8,0.1-1.2c0-0.1,0-0.1,0.1-0.2C24.5,13.6,24.5,13.6,24.5,13.6z"/>
<path class="st2" d="M46.5,37.6c0-0.1,0.1-0.2,0.1-0.2l0,0l0,0c0-0.1,0.1-0.1,0.1-0.2c-0.4,0-0.7,0.1-0.9,0.3
	c-0.1,0.1-0.3,0.2-0.3,0.3c0,0,0.1,0,0.1-0.1C46,37.6,46.3,37.5,46.5,37.6z"/>
<path class="st2" d="M22.1,26.9c-0.1,0.1-0.3,0.1-0.3,0.2c0,0,0.1,0,0.1,0c0.2,0,0.4,0,0.6,0c0.2,0,0.3,0.1,0.4,0.2
	c0.1-0.1,0.3-0.2,0.5-0.4c-0.1-0.1-0.2-0.1-0.4-0.2C22.6,26.7,22.3,26.7,22.1,26.9z"/>
<path class="st2" d="M20.8,30.9C20.8,30.9,20.8,30.9,20.8,30.9C20.8,30.9,20.8,30.9,20.8,30.9c0.4-0.4,0.8-0.5,1.1-0.6
	c0-0.2,0-0.4,0-0.6c-0.3,0.1-0.6,0.3-0.8,0.5C20.9,30.5,20.8,30.7,20.8,30.9z"/>
<path class="st2" d="M46.8,34.6c0.2,0.1,0.4,0.1,0.5,0.2c0.1-0.1,0.3-0.2,0.4-0.2c-0.1-0.1-0.2-0.1-0.3-0.1c-0.4-0.1-0.8,0-1,0.1
	c0,0,0.1,0,0.1,0C46.7,34.6,46.7,34.6,46.8,34.6z"/>
<path class="st2" d="M22.5,13c0.2,0,0.3,0.1,0.3,0.2c0.2-0.2,0.4-0.4,0.4-0.4c0,0,0,0,0,0c-0.2-0.1-0.4-0.2-0.5-0.2
	c-0.4-0.1-0.7,0-1,0.2c-0.2,0.1-0.3,0.3-0.3,0.4c0.1,0,0.1,0,0.2-0.1C22,12.9,22.3,13,22.5,13z"/>
<path class="st2" d="M25.7,55.6C25.7,55.6,25.7,55.7,25.7,55.6C25.7,55.7,25.7,55.6,25.7,55.6z"/>
<path class="st2" d="M25.1,56.1c-0.1,0.1-0.2,0.1-0.3,0.1c-0.2,0.1-0.3,0.1-0.5,0.1c0.1,0,0.2,0,0.3-0.1c0.1,0.2,0.1,0.4,0.2,0.5
	h0.5C25.3,56.6,25.2,56.4,25.1,56.1C25.1,56.1,25.1,56.1,25.1,56.1z"/>
<path class="st2" d="M27.6,50.8c-0.1-0.1-0.1-0.2-0.2-0.3C27.5,50.5,27.6,50.6,27.6,50.8z"/>
<path class="st2" d="M26.2,53.8c0.1,0.4,0,0.9-0.2,1.3C26.2,54.7,26.3,54.2,26.2,53.8z"/>
<path class="st2" d="M25.1,47.6C25.1,47.7,25.2,47.7,25.1,47.6C25.2,47.7,25.1,47.7,25.1,47.6z"/>
<path class="st2" d="M26.8,49.8c-0.2-0.1-0.4-0.2-0.6-0.3C26.4,49.6,26.6,49.7,26.8,49.8z"/>
<path class="st2" d="M25.6,48.2C25.6,48.2,25.6,48.2,25.6,48.2C25.6,48.2,25.6,48.2,25.6,48.2z"/>
<path class="st2" d="M25.9,48.8C25.9,48.8,25.9,48.8,25.9,48.8C25.9,48.8,25.9,48.8,25.9,48.8z"/>
<path class="st2" d="M27,49.9c0.1,0.1,0.2,0.2,0.3,0.3C27.2,50.1,27.1,50,27,49.9z"/>
<path class="st2" d="M22.2,55.4c0.1,0.1,0.2,0.2,0.2,0.3C22.4,55.6,22.3,55.5,22.2,55.4L22.2,55.4z"/>
<path class="st2" d="M23.5,56.3c-0.1,0-0.3-0.1-0.4-0.1C23.2,56.2,23.4,56.3,23.5,56.3z"/>
<path class="st2" d="M20.6,55.5c-0.2-0.1-0.4-0.1-0.5-0.2C20.2,55.4,20.4,55.5,20.6,55.5z"/>
<path class="st2" d="M24.1,56.4c-0.2,0-0.4,0-0.6-0.1C23.7,56.4,23.9,56.4,24.1,56.4z"/>
<path class="st2" d="M26.2,53.8c0.1,0,0.2-0.1,0.3-0.1C26.4,53.7,26.3,53.7,26.2,53.8z"/>
<path class="st2" d="M27.7,52.5c0-0.1,0-0.1,0.1-0.2C27.7,52.4,27.7,52.5,27.7,52.5z"/>
<path class="st2" d="M27.8,52.2c0-0.1,0-0.1,0-0.2C27.8,52.1,27.8,52.1,27.8,52.2z"/>
<path class="st2" d="M26.7,53.6c0.1,0,0.1-0.1,0.2-0.1C26.8,53.5,26.8,53.5,26.7,53.6z"/>
<path class="st2" d="M27.5,52.8c0,0,0.1-0.1,0.1-0.1C27.5,52.7,27.5,52.8,27.5,52.8z"/>
<path class="st2" d="M27.3,53.1c0,0,0.1-0.1,0.1-0.1C27.3,53,27.3,53.1,27.3,53.1z"/>
<path class="st2" d="M27.1,53.2c0,0-0.1,0.1-0.1,0.1C27.1,53.3,27.1,53.3,27.1,53.2z"/>
<path class="st2" d="M18.9,49.7c0,0.1-0.1,0.2-0.1,0.2C18.9,49.8,18.9,49.8,18.9,49.7z"/>
<path class="st2" d="M18.8,50.1c0,0.1,0,0.2,0,0.3C18.8,50.3,18.8,50.2,18.8,50.1z"/>
<path class="st2" d="M20.9,48.3c0.2,0,0.4,0,0.7,0.1c0.1,0,0.2,0,0.2,0.1c-0.1,0-0.2-0.1-0.2-0.1C21.3,48.3,21.1,48.2,20.9,48.3z"/>
<path class="st2" d="M23.6,47.2c0.1,0,0.2,0,0.2,0C23.7,47.1,23.7,47.1,23.6,47.2z"/>
<path class="st2" d="M19.2,52.6C19.2,52.6,19.1,52.6,19.2,52.6C19.1,52.6,19.2,52.6,19.2,52.6z"/>
<path class="st2" d="M19,53.3C19,53.3,19,53.3,19,53.3C19,53.3,19,53.3,19,53.3z"/>
<path class="st2" d="M19.1,53.9C19.1,54,19.1,54,19.1,53.9C19.1,54,19.1,54,19.1,53.9z"/>
<path class="st2" d="M32.4,56.2c-0.1-0.3,0.1-0.8,0.2-1.1c0-0.1,0.1-0.3,0.1-0.4c0.2-0.8,0.2-1.5,0-2c0,0,0.1,0,0.1,0
	c0.4,0.1,0.8,0,1.1-0.4l0.6-0.7c0.2-0.2,0.3-0.5,0.2-0.8c0-0.3-0.2-0.5-0.4-0.7l-0.7-0.6c-0.1-0.1-0.2-0.2-0.4-0.2
	c-0.2-0.1-0.5,0-0.7,0c0.1-0.5,0-1.1-0.2-1.7c0-0.1-0.1-0.2-0.1-0.4c-0.1-0.3-0.3-0.8-0.3-1.1c0-0.1,0.1-0.2,0.1-0.4
	c0.1-0.3,0.3-0.8-0.1-1.3l-0.1,0.1l0,0l0.1-0.1c-0.1-0.2-0.3-0.3-0.5-0.3c-0.3-0.1-0.5,0-0.7,0c-0.1,0-0.3,0-0.4,0c0,0-0.1,0-0.1,0
	c-0.3-0.1-0.6-0.3-0.9-0.5c-0.1-0.1-0.2-0.2-0.3-0.2c-0.4-0.2-0.8-0.4-1.1-0.5c-0.2-0.1-0.5-0.1-0.7-0.1c0.1-0.1,0.2-0.3,0.2-0.5
	c0.1-0.3,0-0.6-0.2-0.8l-0.5-0.8c-0.1-0.2-0.4-0.4-0.6-0.4c-0.3-0.1-0.6,0-0.9,0.1l-0.8,0.5c-0.3,0.2-0.5,0.6-0.5,1
	C23.7,42,23.6,42,23.4,42c-0.4-0.1-0.8-0.1-1.2-0.1c-0.1,0-0.3,0-0.4,0c-0.3,0-0.7,0-1,0c0,0-0.1,0-0.1,0c-0.1-0.1-0.2-0.1-0.3-0.2
	c-0.2-0.2-0.4-0.3-0.6-0.4c-0.2-0.1-0.4,0-0.6,0l0,0l0,0c-0.6,0.2-0.6,0.8-0.7,1.1c0,0.1,0,0.3-0.1,0.4c-0.1,0.2-0.5,0.6-0.8,0.8
	c-0.1,0.1-0.2,0.2-0.3,0.3c-0.6,0.5-1,1-1.1,1.6c-0.1-0.2-0.4-0.4-0.6-0.5c-0.2,0-0.4,0-0.6,0L14,45.1c-0.3,0.1-0.5,0.3-0.6,0.5
	c-0.1,0.2-0.2,0.5-0.1,0.8l0.2,0.9c0.1,0.4,0.4,0.7,0.8,0.8l0,0c-0.3,0.4-0.6,0.8-0.8,1.5c0,0.1-0.1,0.3-0.1,0.4
	c-0.1,0.3-0.2,0.8-0.4,1c-0.1,0.1-0.2,0.2-0.3,0.2c-0.3,0.2-0.7,0.5-0.7,1.1l0,0l0,0c0,0.6,0.5,0.8,0.8,1c0.1,0.1,0.3,0.1,0.3,0.2
	c0.2,0.2,0.4,0.7,0.5,1c0,0.1,0.1,0.3,0.1,0.4c0.3,0.7,0.7,1.2,1.2,1.6c-0.2,0.1-0.4,0.2-0.5,0.3h3.4c0.1-0.2,0.3-0.4,0.5-0.6
	c0.3-0.3,0.7-0.8,1.3-1.2c0.1,0.1,0.2,0.1,0.3,0.2c-0.1-0.1-0.3-0.2-0.4-0.3c-0.1-0.1-0.1-0.2-0.2-0.2c0,0,0,0,0,0
	c-0.5,0.5-1.1,0.8-1.5,1c-1.7,1-2.7,0.5-3.3-1c-0.2-0.4-0.4-1.3-0.9-1.7c-0.4-0.3-0.9-0.4-0.9-0.6l0,0c0-0.2,0.5-0.4,0.8-0.7
	c0.4-0.4,0.6-1.3,0.7-1.8c0.5-1.6,1.4-2.2,3.2-1.4c0.4,0.2,1,0.5,1.6,0.9c0,0.1-0.1,0.1-0.1,0.2c0-0.1,0.1-0.2,0.1-0.3
	c0.1-0.2,0.2-0.3,0.4-0.4c-0.1,0-0.1,0.1-0.2,0.1c-0.6-0.4-1.2-0.8-1.5-1.1c-1.4-1.3-1.3-2.4-0.1-3.5c0.4-0.3,1.1-0.8,1.3-1.4
	c0.2-0.4,0.1-0.9,0.3-1c0.2-0.1,0.5,0.3,0.9,0.5c0.6,0.3,1.4,0.1,1.9,0.1c1.6,0,2.5,0.7,2.3,2.6c-0.1,0.4-0.1,1.2-0.4,1.9
	c0,0-0.1,0-0.1,0c0.1,0,0.2,0,0.3,0.1c0.1,0,0.2,0.1,0.3,0.1c0,0,0,0,0,0c0.2-0.8,0.5-1.4,0.6-1.9c0.8-1.8,1.9-2,3.3-1.1
	c0.4,0.3,1.1,0.8,1.7,0.8c0.5,0,0.9-0.2,1.1,0l0,0c0.1,0.2-0.2,0.6-0.2,1c-0.1,0.6,0.3,1.4,0.5,1.8c0.5,1.5,0.1,2.6-1.8,3
	c-0.4,0.1-1.1,0.2-1.9,0.2c0-0.1-0.1-0.1-0.1-0.2c0,0.2,0.1,0.3,0.1,0.5c0,0.1,0,0.2,0,0.3c0,0,0-0.1,0-0.1c0.8-0.1,1.5,0,1.9,0
	c1.9,0.2,2.4,1.2,2.1,2.8c-0.1,0.5-0.4,1.3-0.3,1.9c0,0.1,0.1,0.3,0.2,0.4h0.9c0-0.1-0.1-0.2-0.1-0.3C32.5,56.4,32.4,56.3,32.4,56.2
	z M15.8,47.2l-1.2,0.1c-0.1,0-0.3,0-0.3-0.2l-0.2-0.9c0-0.1,0-0.3,0.2-0.3l0.9-0.3c0.1,0,0.3,0,0.3,0.2l0.5,1.1
	C16,47,15.9,47.2,15.8,47.2z M26.4,42.5l-0.9,0.8c-0.1,0.1-0.3,0-0.3-0.1l-0.5-1.1c-0.1-0.1,0-0.3,0.1-0.3l0.8-0.5
	c0.1-0.1,0.3,0,0.3,0.1l0.5,0.8C26.5,42.3,26.5,42.4,26.4,42.5z M31.8,51.4c-0.1-0.1-0.1-0.2,0-0.3l0.9-0.8c0.1-0.1,0.2-0.1,0.3,0
	l0.7,0.6c0.1,0.1,0.1,0.2,0,0.3l-0.6,0.7C33.1,52,33,52,32.9,52L31.8,51.4z"/>
<path class="st2" d="M18.8,50.8c0-0.1,0-0.2,0-0.3C18.8,50.6,18.8,50.7,18.8,50.8z"/>
<path class="st2" d="M20.1,48.5c-0.1,0.1-0.2,0.1-0.3,0.2C19.8,48.6,19.9,48.5,20.1,48.5z"/>
<path class="st2" d="M21.8,48.4c0.2-0.4,0.5-0.7,0.9-1C22.3,47.7,22,48,21.8,48.4z"/>
<path class="st2" d="M23,47.3c-0.1,0-0.3,0.1-0.4,0.2C22.8,47.4,22.9,47.3,23,47.3z"/>
<path class="st2" d="M20.7,48.3c-0.1,0-0.3,0-0.4,0.1C20.4,48.3,20.6,48.3,20.7,48.3z"/>
<path class="st2" d="M23.4,47.2c-0.1,0-0.2,0-0.3,0.1C23.2,47.2,23.3,47.2,23.4,47.2z"/>
<path class="st2" d="M20.6,55.5C20.6,55.5,20.6,55.6,20.6,55.5c0.6,0.2,1.2,0.1,1.7-0.2c0,0,0,0,0,0l0,0c0.1,0.1,0.2,0.2,0.2,0.3
	c0.2,0.2,0.4,0.4,0.6,0.5c0.1,0.1,0.2,0.1,0.4,0.1c0.2,0.1,0.4,0.1,0.6,0.1c0.1,0,0.1,0,0.2,0c0.2,0,0.3,0,0.5-0.1
	c0.1,0,0.2-0.1,0.3-0.1c0.2-0.1,0.3-0.2,0.5-0.4c0,0,0-0.1,0.1-0.1c0.1-0.2,0.3-0.3,0.4-0.5c0.2-0.4,0.2-0.9,0.2-1.3
	c0.1,0,0.2-0.1,0.3-0.1c0,0,0.1-0.1,0.1-0.1c0.1,0,0.1-0.1,0.2-0.1c0,0,0.1-0.1,0.1-0.1c0,0,0.1-0.1,0.1-0.1c0,0,0.1-0.1,0.1-0.1
	c0,0,0.1-0.1,0.1-0.1c0,0,0.1-0.1,0.1-0.2c0,0,0.1-0.1,0.1-0.1c0-0.1,0.1-0.1,0.1-0.2c0-0.1,0-0.1,0.1-0.2c0-0.1,0-0.1,0.1-0.2
	c0-0.1,0-0.1,0-0.2c0-0.1,0-0.1,0-0.2c0-0.1,0-0.2,0-0.3c0-0.2-0.1-0.3-0.1-0.5c0-0.1-0.1-0.2-0.1-0.3c-0.1-0.1-0.1-0.2-0.2-0.3
	c0-0.1-0.1-0.1-0.1-0.2c-0.1-0.1-0.2-0.2-0.3-0.3c-0.1,0-0.1-0.1-0.2-0.1c-0.2-0.1-0.4-0.2-0.6-0.3c-0.1,0-0.2,0-0.3-0.1
	c0-0.2,0-0.4-0.1-0.6c0,0,0,0,0-0.1c-0.1-0.2-0.1-0.4-0.2-0.6c0,0,0,0,0-0.1c-0.1-0.2-0.2-0.3-0.4-0.4c0,0,0,0-0.1-0.1
	c-0.2-0.1-0.3-0.2-0.5-0.3c-0.1,0-0.2-0.1-0.3-0.1c-0.1,0-0.2,0-0.3-0.1c-0.1,0-0.1,0-0.2,0c-0.1,0-0.2,0-0.2,0c-0.1,0-0.1,0-0.2,0
	c-0.1,0-0.2,0-0.3,0.1c0,0-0.1,0-0.1,0c-0.1,0-0.3,0.1-0.4,0.2c-0.4,0.2-0.7,0.6-0.9,1c-0.1,0-0.2-0.1-0.2-0.1
	c-0.2-0.1-0.4-0.1-0.7-0.1c-0.1,0-0.1,0-0.2,0c-0.1,0-0.3,0-0.4,0.1c-0.1,0-0.1,0.1-0.2,0.1c-0.1,0.1-0.2,0.1-0.3,0.2
	c-0.1,0.1-0.1,0.1-0.2,0.2c-0.1,0.1-0.3,0.2-0.4,0.4c-0.1,0.1-0.1,0.2-0.1,0.3c0,0,0,0.1-0.1,0.1c0,0.1-0.1,0.2-0.1,0.2
	c0,0,0,0.1,0,0.1c0,0.1,0,0.2,0,0.3c0,0,0,0.1,0,0.1c0,0.1,0,0.2,0,0.3c0,0,0,0.1,0,0.1c0.1,0.4,0.3,0.8,0.6,1.1
	c-0.1,0.2-0.2,0.4-0.3,0.6c0,0,0,0,0,0C19.1,52.8,19,53,19,53.3c0,0,0,0.1,0,0.1c0,0.2,0,0.4,0.1,0.6c0,0,0,0.1,0,0.1
	c0.1,0.2,0.1,0.4,0.2,0.6c0.1,0.1,0.1,0.2,0.2,0.2c0.1,0.1,0.2,0.2,0.4,0.3c0.1,0,0.1,0.1,0.2,0.1C20.2,55.4,20.4,55.5,20.6,55.5z
	 M19.8,49.7c0.4-0.6,1.2-0.8,1.9-0.4c0.1,0.1,0.2,0.1,0.3,0.2l0,0c0.1,0.1,0.2,0.1,0.3,0c0.1,0,0.1-0.1,0.1-0.2c0-0.1,0-0.2,0-0.4
	c0.2-0.7,0.9-1.2,1.7-1c0.7,0.2,1.2,0.9,1,1.7c0,0.1-0.1,0.2-0.1,0.3c-0.1,0.1,0,0.2,0.1,0.3c0.1,0,0.1,0,0.2,0c0,0,0,0,0,0
	c0.1,0,0.2-0.1,0.4-0.1c0.7,0,1.4,0.5,1.4,1.3c0,0.8-0.5,1.4-1.3,1.4c-0.1,0-0.2,0-0.3,0c0,0,0,0,0,0c-0.1,0-0.2,0.1-0.3,0.2
	c0,0.1,0,0.1,0,0.2c0,0,0,0,0,0c0.1,0.1,0.1,0.2,0.2,0.3c0.3,0.7-0.1,1.5-0.8,1.8c-0.7,0.3-1.5-0.1-1.8-0.8c0-0.1-0.1-0.2-0.1-0.3
	l0,0c0-0.1-0.1-0.2-0.3-0.2c-0.1,0-0.1,0-0.2,0.1l0,0c-0.1,0.1-0.2,0.2-0.3,0.3c-0.6,0.5-1.4,0.4-1.9-0.2c-0.5-0.6-0.4-1.4,0.2-1.9
	c0.1-0.1,0.2-0.1,0.3-0.2c0.1-0.1,0.2-0.2,0.1-0.3c0-0.1-0.1-0.1-0.1-0.1c0,0,0,0,0,0c-0.1,0-0.2-0.1-0.3-0.2
	C19.6,51.2,19.4,50.3,19.8,49.7z"/>
<path class="st0" d="M24.7,56.3c-0.1,0-0.2,0-0.3,0.1c-0.1,0-0.1,0-0.2,0c-0.2,0-0.4,0-0.6-0.1c-0.1,0-0.3-0.1-0.4-0.1
	c-0.2-0.1-0.5-0.3-0.6-0.5c-0.1-0.1-0.2-0.2-0.2-0.3c-0.5,0.3-1.1,0.3-1.6,0.2c0,0,0,0,0,0c-0.2-0.1-0.4-0.1-0.5-0.2
	c-0.1,0-0.1-0.1-0.2-0.1c-0.1-0.1-0.2-0.1-0.3-0.2c-0.6,0.4-1,0.9-1.3,1.2c-0.2,0.2-0.4,0.4-0.5,0.6h7
	C24.8,56.6,24.8,56.5,24.7,56.3z"/>
<path class="st0" d="M19.7,48.7c0.1-0.1,0.2-0.1,0.3-0.2c0.1,0,0.1-0.1,0.2-0.1c0.1,0,0.3-0.1,0.4-0.1c0.1,0,0.1,0,0.2,0
	c0.2,0,0.4,0,0.7,0.1c0.1,0,0.2,0,0.2,0.1c0.2-0.4,0.5-0.7,0.9-1c0.1-0.1,0.2-0.1,0.4-0.2c0,0,0.1,0,0.1,0c0.1,0,0.2,0,0.3-0.1
	c0.1,0,0.1,0,0.2,0c0.1,0,0.2,0,0.2,0c0.1,0,0.1,0,0.2,0c0,0,0.1,0,0.1,0c0.2-0.7,0.3-1.5,0.4-1.9c0.2-1.9-0.7-2.7-2.3-2.6
	c-0.5,0-1.3,0.2-1.9-0.1c-0.4-0.2-0.7-0.6-0.9-0.5c-0.2,0.1-0.1,0.6-0.3,1c-0.2,0.6-0.9,1-1.3,1.4c-1.2,1.1-1.4,2.2,0.1,3.5
	c0.3,0.3,0.8,0.8,1.5,1.1c0-0.1,0.1-0.1,0.2-0.1C19.6,48.8,19.6,48.7,19.7,48.7z"/>
<path class="st0" d="M19.1,53.9c0-0.2-0.1-0.4-0.1-0.6c0,0,0-0.1,0-0.1c0-0.2,0.1-0.4,0.1-0.6c0,0,0,0,0,0c0.1-0.2,0.2-0.4,0.3-0.6
	c-0.3-0.3-0.5-0.7-0.6-1.1c0,0,0-0.1,0-0.1c0-0.1,0-0.2,0-0.3c0,0,0-0.1,0-0.1c0-0.1,0-0.2,0-0.3c0-0.1,0-0.1,0-0.1
	c0-0.1,0-0.2,0.1-0.2c0-0.1,0-0.1,0.1-0.1c0-0.1,0-0.1,0.1-0.2c-0.6-0.4-1.2-0.7-1.6-0.9c-1.7-0.8-2.7-0.2-3.2,1.4
	c-0.1,0.5-0.3,1.3-0.7,1.8c-0.3,0.3-0.8,0.5-0.8,0.7l0,0c0,0.2,0.5,0.3,0.9,0.6c0.5,0.4,0.7,1.2,0.9,1.7c0.6,1.5,1.7,2,3.3,1
	c0.4-0.2,0.9-0.5,1.5-1c0,0,0,0,0,0C19.2,54.4,19.1,54.2,19.1,53.9C19.1,54,19.1,54,19.1,53.9z"/>
<path class="st0" d="M25.2,47.7c0.1,0.1,0.3,0.3,0.4,0.4c0,0,0,0,0,0.1c0.1,0.2,0.2,0.4,0.2,0.6c0,0,0,0,0,0.1
	c0,0.2,0.1,0.4,0.1,0.6c0.1,0,0.2,0,0.3,0.1c0.2,0.1,0.4,0.2,0.6,0.3c0.1,0,0.1,0.1,0.2,0.1c0.1,0.1,0.2,0.2,0.3,0.3
	c0.1,0.1,0.1,0.1,0.1,0.2c0.1,0.1,0.1,0.2,0.2,0.3c0,0.1,0.1,0.2,0.1,0.3c0,0.1,0.1,0.1,0.1,0.2c0.8,0,1.5-0.2,1.9-0.2
	c1.9-0.4,2.3-1.5,1.8-3c-0.2-0.5-0.6-1.2-0.5-1.8c0.1-0.5,0.4-0.9,0.2-1l0,0c-0.1-0.2-0.6,0-1.1,0c-0.6,0-1.3-0.6-1.7-0.8
	c-1.4-0.8-2.5-0.6-3.3,1.1c-0.2,0.4-0.5,1.1-0.6,1.9c0,0,0,0,0,0C24.8,47.4,25,47.5,25.2,47.7C25.1,47.7,25.2,47.7,25.2,47.7z"/>
<path class="st0" d="M27.8,52.2c0,0.1,0,0.1-0.1,0.2c0,0.1,0,0.1-0.1,0.2c0,0.1,0,0.1-0.1,0.2c0,0.1-0.1,0.1-0.1,0.1
	c0,0.1-0.1,0.1-0.1,0.2c0,0-0.1,0.1-0.1,0.1c0,0-0.1,0.1-0.1,0.1c0,0-0.1,0.1-0.1,0.1c0,0-0.1,0.1-0.1,0.1c-0.1,0-0.1,0.1-0.2,0.1
	c0,0-0.1,0.1-0.1,0.1c-0.1,0-0.2,0.1-0.3,0.1c0.1,0.4,0,0.9-0.2,1.3c-0.1,0.2-0.2,0.4-0.4,0.5c0,0,0,0.1-0.1,0.1
	c-0.1,0.2-0.3,0.3-0.5,0.4c0,0,0,0,0,0c0.1,0.3,0.2,0.5,0.3,0.7h6.3c-0.1-0.1-0.1-0.3-0.2-0.4c-0.2-0.6,0.2-1.4,0.3-1.9
	c0.4-1.6-0.2-2.6-2.1-2.8c-0.4,0-1.2-0.1-1.9,0c0,0,0,0.1,0,0.1c0,0.1,0,0.1,0,0.2C27.8,52.1,27.8,52.1,27.8,52.2z"/>
<path class="st0" d="M33.2,51.9l0.6-0.7c0.1-0.1,0.1-0.3,0-0.3L33,50.2c-0.1-0.1-0.3-0.1-0.3,0L31.8,51c-0.1,0.1-0.1,0.3,0,0.3
	l1,0.6C33,52,33.1,52,33.2,51.9z"/>
<path class="st0" d="M25.9,41.4c-0.1-0.1-0.2-0.1-0.3-0.1l-0.8,0.5c-0.1,0.1-0.1,0.2-0.1,0.3l0.5,1.1c0.1,0.1,0.2,0.1,0.3,0.1
	l0.9-0.8c0.1-0.1,0.1-0.2,0.1-0.3L25.9,41.4z"/>
<path class="st0" d="M15.2,45.7l-0.9,0.3c-0.1,0-0.2,0.2-0.2,0.3l0.2,0.9c0,0.1,0.2,0.2,0.3,0.2l1.2-0.1c0.1,0,0.2-0.2,0.2-0.3
	l-0.5-1.1C15.4,45.7,15.3,45.6,15.2,45.7z"/>
<path class="st0" d="M19.9,55.2c0.1,0,0.1,0.1,0.2,0.1C20,55.3,19.9,55.2,19.9,55.2z"/>
<path class="st0" d="M25.2,47.7c0.1,0.1,0.3,0.3,0.4,0.4C25.5,48,25.3,47.8,25.2,47.7z"/>
<path class="st0" d="M19.1,52.7C19.1,52.8,19,53,19,53.3C19,53,19.1,52.8,19.1,52.7z"/>
<path class="st0" d="M19.1,53.9c0-0.2-0.1-0.4-0.1-0.6C19,53.5,19,53.7,19.1,53.9z"/>
<path class="st0" d="M23.1,56.2c-0.2-0.1-0.5-0.3-0.6-0.5C22.7,55.9,22.9,56,23.1,56.2z"/>
<path class="st0" d="M23.2,47.2c0,0-0.1,0-0.1,0C23.1,47.2,23.1,47.2,23.2,47.2z"/>
<path class="st0" d="M24.4,56.3c-0.1,0-0.1,0-0.2,0C24.2,56.4,24.3,56.3,24.4,56.3z"/>
<path class="st0" d="M18.8,50.5c0,0,0-0.1,0-0.1C18.8,50.4,18.8,50.4,18.8,50.5z"/>
<path class="st0" d="M19.3,54.6c-0.1-0.2-0.2-0.4-0.2-0.6C19.1,54.2,19.2,54.4,19.3,54.6z"/>
<path class="st0" d="M19.5,52c-0.1,0.2-0.2,0.4-0.3,0.6C19.2,52.4,19.3,52.2,19.5,52c-0.3-0.3-0.5-0.7-0.6-1.1c0,0,0-0.1,0-0.1
	c0,0,0,0.1,0,0.1C18.9,51.3,19.2,51.7,19.5,52z"/>
<path class="st0" d="M27.3,50.2c0.1,0.1,0.1,0.1,0.1,0.2C27.4,50.4,27.4,50.3,27.3,50.2z"/>
<path class="st0" d="M23.6,47.2c-0.1,0-0.1,0-0.2,0C23.5,47.2,23.5,47.2,23.6,47.2z"/>
<path class="st0" d="M20.3,48.4c-0.1,0-0.1,0.1-0.2,0.1C20.1,48.4,20.2,48.4,20.3,48.4z"/>
<path class="st0" d="M25.9,49.5c0-0.2,0-0.4-0.1-0.6C25.9,49,25.9,49.2,25.9,49.5z"/>
<path class="st0" d="M20.7,48.3c0.1,0,0.1,0,0.2,0C20.8,48.3,20.8,48.3,20.7,48.3z"/>
<path class="st0" d="M24.6,47.3c0.2,0.1,0.4,0.2,0.5,0.3C25,47.5,24.8,47.4,24.6,47.3z"/>
<path class="st0" d="M27.7,52.3c0-0.1,0-0.1,0.1-0.2C27.8,52.2,27.7,52.3,27.7,52.3z"/>
<path class="st0" d="M27.3,53.1c0,0-0.1,0.1-0.1,0.1C27.2,53.2,27.2,53.2,27.3,53.1z"/>
<path class="st0" d="M27.8,51.8c0,0.1,0,0.1,0,0.2C27.8,51.9,27.8,51.9,27.8,51.8z"/>
<path class="st0" d="M27.7,51c0-0.1-0.1-0.2-0.1-0.3C27.7,50.8,27.7,50.9,27.7,51z"/>
<path class="st0" d="M27,49.9c-0.1,0-0.1-0.1-0.2-0.1C26.9,49.8,26.9,49.9,27,49.9z"/>
<path class="st0" d="M25.6,55.7c-0.1,0.2-0.3,0.3-0.5,0.4C25.3,56,25.5,55.8,25.6,55.7z"/>
<path class="st0" d="M23.8,47.1c0.1,0,0.1,0,0.2,0C23.9,47.2,23.9,47.1,23.8,47.1z"/>
<path class="st0" d="M25.9,48.8c-0.1-0.2-0.1-0.4-0.2-0.6C25.7,48.4,25.8,48.6,25.9,48.8z"/>
<path class="st0" d="M20.6,55.6C20.6,55.6,20.6,55.5,20.6,55.6C20.6,55.5,20.6,55.6,20.6,55.6c0.5,0.1,1.1,0.1,1.6-0.2c0,0,0,0,0,0
	C21.7,55.6,21.2,55.7,20.6,55.6z"/>
<path class="st0" d="M26.6,53.6c0,0,0.1-0.1,0.1-0.1C26.6,53.6,26.6,53.6,26.6,53.6z"/>
<path class="st0" d="M26.9,53.5c0,0,0.1-0.1,0.1-0.1C27,53.4,26.9,53.4,26.9,53.5z"/>
<path class="st0" d="M19,49.5c0,0,0,0.1-0.1,0.1C19,49.6,19,49.6,19,49.5z"/>
<path class="st0" d="M25.7,55.6c0.1-0.2,0.3-0.3,0.4-0.5C26,55.3,25.8,55.4,25.7,55.6z"/>
<path class="st0" d="M18.9,49.9c0,0,0,0.1,0,0.1C18.8,50,18.9,50,18.9,49.9z"/>
<path class="st0" d="M19.5,48.8c0.1-0.1,0.1-0.1,0.2-0.2C19.6,48.7,19.6,48.8,19.5,48.8z"/>
<path class="st0" d="M27.6,52.7c0-0.1,0.1-0.1,0.1-0.2C27.6,52.6,27.6,52.6,27.6,52.7z"/>
<path class="st0" d="M27.4,53c0,0,0.1-0.1,0.1-0.2C27.5,52.9,27.4,52.9,27.4,53z"/>
<path class="st0" d="M20.2,51.6c0.1,0.1,0.2,0.1,0.3,0.2c0,0,0,0,0,0c0.1,0,0.1,0.1,0.1,0.1c0,0.1,0,0.2-0.1,0.3
	c-0.1,0-0.2,0.1-0.3,0.2c-0.6,0.5-0.7,1.3-0.2,1.9c0.5,0.6,1.3,0.7,1.9,0.2c0.1-0.1,0.2-0.2,0.3-0.3l0,0c0-0.1,0.1-0.1,0.2-0.1
	c0.1,0,0.2,0.1,0.3,0.2l0,0c0,0.1,0,0.2,0.1,0.3c0.3,0.7,1.1,1.1,1.8,0.8c0.7-0.3,1-1.1,0.8-1.8c0-0.1-0.1-0.2-0.2-0.3c0,0,0,0,0,0
	c0-0.1-0.1-0.1,0-0.2c0-0.1,0.2-0.2,0.3-0.2c0,0,0,0,0,0c0.1,0,0.2,0,0.3,0c0.8,0,1.3-0.7,1.3-1.4c0-0.8-0.7-1.3-1.4-1.3
	c-0.1,0-0.2,0-0.4,0.1c0,0,0,0,0,0c-0.1,0-0.1,0-0.2,0c-0.1-0.1-0.1-0.2-0.1-0.3c0.1-0.1,0.1-0.2,0.1-0.3c0.2-0.7-0.2-1.5-1-1.7
	c-0.7-0.2-1.5,0.2-1.7,1c0,0.1,0,0.2,0,0.4c0,0.1,0,0.1-0.1,0.2c-0.1,0.1-0.2,0.1-0.3,0l0,0c-0.1-0.1-0.2-0.2-0.3-0.2
	c-0.6-0.4-1.5-0.2-1.9,0.4C19.4,50.3,19.6,51.2,20.2,51.6z M22,51.5c0.2-0.6,0.7-0.9,1.3-0.8c0.6,0.2,0.9,0.7,0.8,1.3
	c-0.2,0.6-0.7,0.9-1.3,0.8C22.2,52.7,21.9,52.1,22,51.5z"/>
<path class="st2" d="M22.8,52.8c0.6,0.2,1.2-0.2,1.3-0.8c0.2-0.6-0.2-1.2-0.8-1.3c-0.6-0.2-1.2,0.2-1.3,0.8
	C21.9,52.1,22.2,52.7,22.8,52.8z"/>
</svg>
